<?xml version="1.0" encoding="iso-8859-1"?>
<!-- Generator: Adobe Illustrator 19.0.0, SVG Export Plug-In . SVG Version: 6.00 Build 0)  -->
<svg version="1.1" id="Layer_1" xmlns="http://www.w3.org/2000/svg" xmlns:xlink="http://www.w3.org/1999/xlink" x="0px" y="0px"
	 viewBox="0 0 512 512" style="enable-background:new 0 0 512 512;" xml:space="preserve">
<circle style="fill:#74DBC9;" cx="255.998" cy="255.995" r="255.995"/>
<path style="fill:#6AC8B7;" d="M292.573,475.424c-141.382,0-255.995-114.613-255.995-255.995c0-61.377,21.61-117.7,57.623-161.801
	C36.716,104.572,0.007,175.994,0.007,255.999c0,141.382,114.613,255.995,255.995,255.995c80.005,0,151.429-36.709,198.372-94.194
	C410.275,453.815,353.95,475.424,292.573,475.424z"/>
<path style="fill:#2DB59F;" d="M511.829,265.142c0.099-3.428,0.168-6.187,0.168-9.143c0-2.957-0.069-5.714-0.168-9.143h-88.221
	c-1.069-45.713-10.501-90.069-27.242-128.276c16.769-10.522,32.477-22.922,46.824-37.26c-4.042-4.332-8.233-8.484-12.564-12.527
	c-12.701,12.692-26.778,24.028-41.976,33.733c-4.746-9.184-9.936-17.96-15.573-26.268C339.705,27.079,294.991,0,247.175,0
	s-92.528,27.087-125.901,76.267c-3.806,5.608-7.403,11.439-10.804,17.455c-10.328-7.55-20.061-15.865-29.091-24.888
	c-4.331,4.043-8.522,8.234-12.564,12.567c10.426,10.419,21.577,19.69,33.324,28.11c-19.337,40.225-30.242,88.205-31.396,137.347
	H0.175c-0.099,3.428-0.168,6.186-0.168,9.143c0,2.955,0.069,5.714,0.168,9.143h70.565c1.154,49.142,12.06,97.12,31.396,137.346
	c-11.747,8.422-22.898,17.77-33.324,28.189c4.042,4.332,8.233,8.484,12.564,12.527c9.03-9.023,18.763-17.359,29.091-24.908
	c3.402,6.016,6.999,11.835,10.804,17.443c33.372,49.18,78.084,76.26,125.901,76.26c47.816,0,92.528-27.087,125.901-76.267
	c5.638-8.308,10.827-17.096,15.573-26.279c15.2,9.705,29.275,21.02,41.976,33.712c4.331-4.043,8.522-8.234,12.564-12.567
	c-14.347-14.337-30.055-26.659-46.824-37.181c16.74-38.207,26.173-82.563,27.242-128.276H511.829L511.829,265.142z M405.948,246.857
	h-79.376c-0.333-33.142-2.562-65.996-6.513-95.879c21.259-5.257,41.709-13.211,60.958-23.546
	C395.876,162.178,404.878,203.429,405.948,246.857z M247.175,494.34c-10.922,0-27.546-17.336-41.447-65.991
	c-4.318-15.111-7.992-31.885-10.985-49.905c19.596-5.016,40.121-7.688,61.259-7.688c15.088,0,29.862,1.365,44.212,3.967
	c-3.098,19.437-6.978,37.479-11.592,53.626C274.721,477.004,258.097,494.34,247.175,494.34z M256.002,353.101
	c-21.829,0-43.254,2.789-63.916,7.887c-4.036-29.714-6.314-62.704-6.654-95.846h123.484c-0.326,31.999-2.439,63.489-6.174,92.214
	C287.467,354.651,271.842,353.101,256.002,353.101z M185.433,246.857c0.339-33.142,2.617-66.132,6.654-95.846
	c20.664,5.098,42.087,7.808,63.916,7.808c15.84,0,31.463-1.51,46.741-4.216c3.736,28.725,5.849,60.254,6.174,92.253H185.433V246.857
	z M247.175,17.66c10.922,0,27.546,17.336,41.447,65.991c4.614,16.146,8.494,34.189,11.592,53.625
	c-14.349,2.602-29.124,3.967-44.212,3.967c-21.138,0-41.663-2.672-61.259-7.688c2.993-18.02,6.667-34.795,10.985-49.905
	C219.629,34.996,236.253,17.66,247.175,17.66z M373.45,111.511c-17.497,9.489-36.261,16.928-55.967,21.992
	c-3.185-19.782-7.164-38.182-11.884-54.702c-6.763-23.673-14.684-42.205-23.546-55.343
	C319.025,35.928,351.159,67.784,373.45,111.511z M212.298,23.458c-8.862,13.138-16.783,31.669-23.546,55.343
	c-4.321,15.124-8.02,31.827-11.059,49.72c-18.617-6.235-36.246-14.635-52.602-24.89C147.131,63.962,177.583,35.166,212.298,23.458z
	 M116.97,119.402c18.209,11.275,37.655,20.163,57.977,26.669c-4.36,31.196-6.819,65.359-7.17,100.787H88.402
	C89.558,200.001,99.955,155.825,116.97,119.402z M88.402,265.142h79.376c0.351,35.428,2.81,69.512,7.17,100.708
	c-20.323,6.506-39.768,15.552-57.977,26.827C99.955,356.253,89.558,311.998,88.402,265.142z M125.089,408.368
	c16.356-10.255,33.986-18.656,52.602-24.89c3.039,17.895,6.738,34.596,11.059,49.72c6.763,23.673,14.684,42.205,23.546,55.343
	C177.583,476.833,147.131,448.037,125.089,408.368z M282.052,488.541c8.862-13.137,16.783-31.669,23.546-55.343
	c4.72-16.52,8.699-34.919,11.884-54.702c19.707,5.063,38.47,12.501,55.967,21.992C351.159,444.215,319.025,476.072,282.052,488.541z
	 M381.018,384.488c-19.249-10.335-39.699-18.13-60.958-23.388c3.951-29.883,6.18-62.816,6.513-95.958h79.376
	C404.878,308.57,395.876,349.743,381.018,384.488z"/>
<path style="fill:#EBEBEC;" d="M111.115,467.056c-28.918-19.891-53.541-45.567-72.204-75.363
	c50.426-7.008,142.9-36.84,235.377-153.979l-35.678-21.408c-3.354-2.013-2.322-7.122,1.55-7.675l111.999-16
	c2.386-0.341,4.56,1.414,4.731,3.817l8.032,112.44c0.274,3.836-4.362,5.953-7.082,3.234l-28.695-28.695
	C329.144,283.427,264.866,411.925,111.115,467.056z"/>
<path style="fill:#D7D8D9;" d="M91.934,378.414c-20.49,7.343-38.502,11.26-53.023,13.279c18.664,29.796,43.286,55.473,72.204,75.363
	c19.974-7.162,38.424-15.57,55.434-24.766C137.734,425.961,112.399,404.208,91.934,378.414z"/>
<g>
</g>
<g>
</g>
<g>
</g>
<g>
</g>
<g>
</g>
<g>
</g>
<g>
</g>
<g>
</g>
<g>
</g>
<g>
</g>
<g>
</g>
<g>
</g>
<g>
</g>
<g>
</g>
<g>
</g>
</svg>
