<?xml version="1.0" encoding="iso-8859-1"?>
<!-- Generator: Adobe Illustrator 19.0.0, SVG Export Plug-In . SVG Version: 6.00 Build 0)  -->
<svg version="1.1" id="Layer_1" xmlns="http://www.w3.org/2000/svg" xmlns:xlink="http://www.w3.org/1999/xlink" x="0px" y="0px"
	 viewBox="0 0 512 512" style="enable-background:new 0 0 512 512;" xml:space="preserve">
<path style="fill:#74DBC9;" d="M358.4,0H170.667c-4.713,0-8.533,3.582-8.533,8v112c0,4.418,3.821,8,8.533,8l93.867,17.067L358.4,128
	c4.713,0,8.533-3.582,8.533-8V8C366.933,3.582,363.113,0,358.4,0z"/>
<circle style="fill:#606268;" cx="426.667" cy="426.667" r="76.8"/>
<circle style="fill:#74757B;" cx="426.667" cy="426.667" r="51.2"/>
<circle style="fill:#EBEBEC;" cx="426.667" cy="426.667" r="42.667"/>
<path style="fill:#D7D8D9;" d="M435.2,460.8c-23.564,0-42.667-19.103-42.667-42.667c0-9.605,3.177-18.469,8.533-25.6
	C390.704,400.318,384,412.708,384,426.667c0,23.564,19.103,42.667,42.667,42.667c13.958,0,26.35-6.704,34.133-17.067
	C453.669,457.624,444.805,460.8,435.2,460.8z"/>
<circle style="fill:#606268;" cx="85.333" cy="426.667" r="76.8"/>
<circle style="fill:#74757B;" cx="85.333" cy="426.667" r="51.2"/>
<circle style="fill:#EBEBEC;" cx="85.333" cy="426.667" r="42.667"/>
<path style="fill:#D7D8D9;" d="M93.867,460.8c-23.564,0-42.667-19.103-42.667-42.667c0-9.605,3.177-18.469,8.533-25.6
	c-10.363,7.785-17.067,20.175-17.067,34.133c0,23.564,19.103,42.667,42.667,42.667c13.958,0,26.35-6.704,34.133-17.067
	C112.336,457.624,103.472,460.8,93.867,460.8z"/>
<path style="fill:#FDDD85;" d="M401.067,128H110.933c-4.713,0-8.533,3.537-8.533,7.901v197.531c0,4.364,3.821,7.901,8.533,7.901
	l153.6,8.533l136.533-8.533c4.713,0,8.533-3.537,8.533-7.901V135.901C409.6,131.537,405.779,128,401.067,128z"/>
<path style="fill:#EB7763;" d="M426.667,512H85.333C38.281,512,0,473.719,0,426.667s38.281-85.333,85.333-85.333h341.333
	c47.053,0,85.333,38.281,85.333,85.333S473.719,512,426.667,512z M85.333,358.4c-37.643,0-68.267,30.624-68.267,68.267
	s30.624,68.267,68.267,68.267h341.333c37.643,0,68.267-30.624,68.267-68.267S464.309,358.4,426.667,358.4H85.333z"/>
<path style="fill:#FDD042;" d="M230.4,128H110.933c-4.713,0-8.533,3.537-8.533,7.901v197.531c0,4.364,3.821,7.901,8.533,7.901H230.4
	c4.713,0,8.533-3.537,8.533-7.901V135.901C238.933,131.537,235.113,128,230.4,128z"/>
<path style="fill:#F2C127;" d="M119.467,333.433V135.901c0-4.364,3.821-7.901,8.533-7.901h-17.067c-4.713,0-8.533,3.537-8.533,7.901
	v197.531c0,4.364,3.821,7.901,8.533,7.901H128C123.287,341.333,119.467,337.796,119.467,333.433z"/>
<path style="fill:#FFFFFF;" d="M204.8,281.6h-68.267c-4.713,0-8.533,3.821-8.533,8.533v25.6c0,4.713,3.821,8.533,8.533,8.533H204.8
	c4.713,0,8.533-3.821,8.533-8.533v-25.6C213.333,285.421,209.513,281.6,204.8,281.6z"/>
<g>
	<path style="fill:#E1A527;" d="M204.8,128h-68.267v85.079c0,3.216,1.658,6.258,4.523,7.785c2.746,1.463,6.156,1.294,8.745-0.432
		l20.866-13.909l20.867,13.911c2.652,1.767,6.225,1.887,8.987,0.295c2.718-1.565,4.281-4.642,4.281-7.739L204.8,128z"/>
	<path style="fill:#E1A527;" d="M364.434,275.566l-34.133-34.133c-3.333-3.332-8.735-3.332-12.068,0l-34.133,34.133
		c-5.268,5.268-1.392,14.568,6.034,14.568h8.533v25.6c0,4.713,3.821,8.533,8.533,8.533h34.133c4.713,0,8.533-3.821,8.533-8.533
		v-25.6h8.533C365.826,290.133,369.702,280.834,364.434,275.566z"/>
</g>
<g>
	<path style="fill:#74757B;" d="M273.067,195.2c-4.124,0-7.467-3.343-7.467-7.467v-17.067c0-4.124,3.343-7.467,7.467-7.467
		s7.467,3.343,7.467,7.467v17.067C280.533,191.857,277.19,195.2,273.067,195.2z"/>
	<path style="fill:#74757B;" d="M290.133,195.2c-4.124,0-7.467-3.343-7.467-7.467v-17.067c0-4.124,3.343-7.467,7.467-7.467
		c4.124,0,7.467,3.343,7.467,7.467v17.067C297.6,191.857,294.257,195.2,290.133,195.2z"/>
	<path style="fill:#74757B;" d="M315.733,195.2c-4.124,0-7.467-3.343-7.467-7.467v-17.067c0-4.124,3.343-7.467,7.467-7.467
		c4.124,0,7.467,3.343,7.467,7.467v17.067C323.2,191.857,319.857,195.2,315.733,195.2z"/>
	<path style="fill:#74757B;" d="M332.8,195.2c-4.124,0-7.467-3.343-7.467-7.467v-17.067c0-4.124,3.343-7.467,7.467-7.467
		s7.467,3.343,7.467,7.467v17.067C340.267,191.857,336.924,195.2,332.8,195.2z"/>
	<path style="fill:#74757B;" d="M349.867,195.2c-4.124,0-7.467-3.343-7.467-7.467v-17.067c0-4.124,3.343-7.467,7.467-7.467
		c4.124,0,7.467,3.343,7.467,7.467v17.067C357.333,191.857,353.99,195.2,349.867,195.2z"/>
	<path style="fill:#74757B;" d="M375.467,195.2c-4.124,0-7.467-3.343-7.467-7.467v-17.067c0-4.124,3.343-7.467,7.467-7.467
		c4.124,0,7.467,3.343,7.467,7.467v17.067C382.933,191.857,379.59,195.2,375.467,195.2z"/>
</g>
<path style="fill:#6AC8B7;" d="M256,0h-85.333c-4.713,0-8.533,3.582-8.533,8v112c0,4.418,3.821,8,8.533,8H256
	c4.713,0,8.533-3.582,8.533-8V8C264.533,3.582,260.713,0,256,0z"/>
<path style="fill:#2DB59F;" d="M179.2,120V8c0-4.418,3.821-8,8.533-8h-17.067c-4.713,0-8.533,3.582-8.533,8v112
	c0,4.418,3.821,8,8.533,8h17.067C183.021,128,179.2,124.418,179.2,120z"/>
<path style="fill:#6AC8B7;" d="M256,0h-25.6c0,0-3.821,8.533-8.533,8.533H204.8c-4.713,0-8.533-8.533-8.533-8.533h-25.6
	c-4.713,0-8.533,3.582-8.533,8v112c0,4.418,3.821,8,8.533,8H256c4.713,0,8.533-3.582,8.533-8V8C264.533,3.582,260.713,0,256,0z"/>
<path style="fill:#EBEBEC;" d="M230.4,0h-34.133v51.2c0,4.713,3.821,8.533,8.533,8.533h17.067c4.713,0,8.533-3.821,8.533-8.533V0z"
	/>
<g>
	<path style="fill:#606268;" d="M230.4,102.4h-34.133c-4.713,0-8.533-3.821-8.533-8.533s3.821-8.533,8.533-8.533H230.4
		c4.713,0,8.533,3.821,8.533,8.533S235.113,102.4,230.4,102.4z"/>
	<path style="fill:#606268;" d="M324.267,51.2h-34.133c-4.713,0-8.533-3.821-8.533-8.533s3.821-8.533,8.533-8.533h34.133
		c4.713,0,8.533,3.821,8.533,8.533S328.979,51.2,324.267,51.2z"/>
	<path style="fill:#606268;" d="M324.267,76.8h-34.133c-4.713,0-8.533-3.821-8.533-8.533s3.821-8.533,8.533-8.533h34.133
		c4.713,0,8.533,3.821,8.533,8.533S328.979,76.8,324.267,76.8z"/>
	<path style="fill:#606268;" d="M324.267,102.4h-34.133c-4.713,0-8.533-3.821-8.533-8.533s3.821-8.533,8.533-8.533h34.133
		c4.713,0,8.533,3.821,8.533,8.533S328.979,102.4,324.267,102.4z"/>
</g>
<g>
</g>
<g>
</g>
<g>
</g>
<g>
</g>
<g>
</g>
<g>
</g>
<g>
</g>
<g>
</g>
<g>
</g>
<g>
</g>
<g>
</g>
<g>
</g>
<g>
</g>
<g>
</g>
<g>
</g>
</svg>
