<?xml version="1.0" encoding="iso-8859-1"?>
<!-- Generator: Adobe Illustrator 19.0.0, SVG Export Plug-In . SVG Version: 6.00 Build 0)  -->
<svg version="1.1" id="Layer_1" xmlns="http://www.w3.org/2000/svg" xmlns:xlink="http://www.w3.org/1999/xlink" x="0px" y="0px"
	 viewBox="0 0 512 512" style="enable-background:new 0 0 512 512;" xml:space="preserve">
<path style="fill:#FDE5A2;" d="M489.467,242.512c-9.335,0.44-16.517,8.482-16.517,17.827v56.178
	c-6.863-5.808-17.141-5.444-23.554,1.065l-45.87,46.565l0.202,0.202l-0.202,0.126h-34.712c-38.341,0-69.424,31.082-69.424,69.424
	v69.424c0,4.792,3.886,8.678,8.678,8.678h60.746c4.792,0,8.678-3.886,8.678-8.678V468.61l52.068-34.712l78.102-78.102v-95.948
	C507.661,249.985,499.433,242.044,489.467,242.512z"/>
<g>
	<path style="fill:#FDD042;" d="M417.972,378.594l3.917,3.917c3.407,3.407,8.937,3.387,12.318-0.047l39.916-40.521
		c5.836-5.925,6.539-14.978,2.164-21.666L417.972,378.594z"/>
	<path style="fill:#FDD042;" d="M490.305,242.517v104.602l-78.102,78.102l-56.373,32.214c-2.704,1.545-4.373,4.42-4.373,7.535V512
		h17.356c4.792,0,8.678-3.886,8.678-8.678V468.61l52.068-34.712l78.102-78.102v-95.948
		C507.661,250.265,499.888,242.52,490.305,242.517z"/>
</g>
<path style="fill:#FDE5A2;" d="M22.533,242.512c9.335,0.44,16.517,8.482,16.517,17.827v56.178
	c6.863-5.808,17.141-5.444,23.554,1.065l45.87,46.565l-0.202,0.202l0.202,0.126h34.712c38.341,0,69.424,31.082,69.424,69.424v69.424
	c0,4.792-3.886,8.678-8.678,8.678h-60.746c-4.792,0-8.678-3.886-8.678-8.678V468.61l-52.068-34.712L4.339,355.797v-95.948
	C4.339,249.985,12.567,242.044,22.533,242.512z"/>
<g>
	<path style="fill:#FDD042;" d="M94.028,378.594l-3.917,3.917c-3.407,3.407-8.937,3.387-12.318-0.047l-39.916-40.521
		c-5.836-5.925-6.539-14.978-2.164-21.666L94.028,378.594z"/>
	<path style="fill:#FDD042;" d="M21.695,242.517v104.602l78.102,78.102l56.373,32.214c2.704,1.545,4.373,4.42,4.373,7.535V512
		h-17.356c-4.792,0-8.678-3.886-8.678-8.678V468.61l-52.068-34.712L4.339,355.797v-95.948
		C4.339,250.265,12.112,242.52,21.695,242.517z"/>
</g>
<path style="fill:#6AC8B7;" d="M412.203,69.424H99.797c-4.792,0-8.678,3.886-8.678,8.678v234.305c0,4.792,3.886,8.678,8.678,8.678
	h312.407c4.792,0,8.678-3.886,8.678-8.678V78.102C420.881,73.309,416.996,69.424,412.203,69.424z"/>
<path style="fill:#2DB59F;" d="M420.881,78.102c0-4.792-3.886-8.678-8.678-8.678H99.797c-4.792,0-8.678,3.886-8.678,8.678v26.395
	h329.763V78.102z"/>
<path style="fill:#74DBC9;" d="M429.559,0H82.441c-4.792,0-8.678,3.886-8.678,8.678v69.424c0,4.792,3.886,8.678,8.678,8.678h347.119
	c4.792,0,8.678-3.886,8.678-8.678V8.678C438.237,3.886,434.352,0,429.559,0z"/>
<g>
	<path style="fill:#2DB59F;" d="M257.643,162.712h-18.999c-2.633,0-5.006-1.586-6.013-4.018c-1.008-2.432-0.45-5.232,1.411-7.093
		l38.787-38.787h-51.542c-4.792,0-8.678,3.886-8.678,8.678v52.068c0,9.62,3.151,18.514,8.469,25.716L257.643,162.712z"/>
	<path style="fill:#2DB59F;" d="M291.213,112.839l-36.856,36.856h18.999c2.633,0,5.005,1.586,6.013,4.018s0.451,5.232-1.411,7.093
		l-47.673,47.675c4.977,3.675,10.764,6.313,17.038,7.594v18.23h-8.678c-4.792,0-8.678,3.886-8.678,8.678s3.886,8.678,8.678,8.678
		h34.712c4.792,0,8.678-3.886,8.678-8.678s-3.886-8.678-8.678-8.678h-8.678v-18.229c19.78-4.032,34.712-21.563,34.712-42.517
		v-52.068C299.39,116.867,295.771,113.1,291.213,112.839z"/>
	<path style="fill:#2DB59F;" d="M256,294.508c-4.493,0-8.136-3.643-8.136-8.136v-8.678c0-4.493,3.643-8.136,8.136-8.136
		c4.494,0,8.136,3.643,8.136,8.136v8.678C264.136,290.866,260.494,294.508,256,294.508z"/>
	<path style="fill:#2DB59F;" d="M221.288,294.508c-4.493,0-8.136-3.643-8.136-8.136v-8.678c0-4.493,3.643-8.136,8.136-8.136
		c4.493,0,8.136,3.643,8.136,8.136v8.678C229.424,290.866,225.781,294.508,221.288,294.508z"/>
	<path style="fill:#2DB59F;" d="M160.542,294.508c-4.493,0-8.136-3.643-8.136-8.136v-8.678c0-4.493,3.643-8.136,8.136-8.136
		s8.136,3.643,8.136,8.136v8.678C168.678,290.866,165.035,294.508,160.542,294.508z"/>
	<path style="fill:#2DB59F;" d="M177.898,294.508c-4.493,0-8.136-3.643-8.136-8.136v-8.678c0-4.493,3.643-8.136,8.136-8.136
		c4.493,0,8.136,3.643,8.136,8.136v8.678C186.034,290.866,182.391,294.508,177.898,294.508z"/>
	<path style="fill:#2DB59F;" d="M238.644,294.508c-4.493,0-8.136-3.643-8.136-8.136v-8.678c0-4.493,3.643-8.136,8.136-8.136
		c4.493,0,8.136,3.643,8.136,8.136v8.678C246.78,290.866,243.137,294.508,238.644,294.508z"/>
	<path style="fill:#2DB59F;" d="M290.712,294.508c-4.494,0-8.136-3.643-8.136-8.136v-8.678c0-4.493,3.641-8.136,8.136-8.136
		s8.136,3.643,8.136,8.136v8.678C298.847,290.866,295.206,294.508,290.712,294.508z"/>
	<path style="fill:#2DB59F;" d="M308.068,294.508c-4.494,0-8.136-3.643-8.136-8.136v-8.678c0-4.493,3.642-8.136,8.136-8.136
		c4.494,0,8.136,3.643,8.136,8.136v8.678C316.203,290.866,312.562,294.508,308.068,294.508z"/>
	<path style="fill:#2DB59F;" d="M334.102,294.508c-4.494,0-8.136-3.643-8.136-8.136v-8.678c0-4.493,3.641-8.136,8.136-8.136
		s8.136,3.643,8.136,8.136v8.678C342.237,290.866,338.596,294.508,334.102,294.508z"/>
	<path style="fill:#2DB59F;" d="M351.458,294.508c-4.494,0-8.136-3.643-8.136-8.136v-8.678c0-4.493,3.642-8.136,8.136-8.136
		c4.494,0,8.136,3.643,8.136,8.136v8.678C359.593,290.866,355.952,294.508,351.458,294.508z"/>
</g>
<g>
</g>
<g>
</g>
<g>
</g>
<g>
</g>
<g>
</g>
<g>
</g>
<g>
</g>
<g>
</g>
<g>
</g>
<g>
</g>
<g>
</g>
<g>
</g>
<g>
</g>
<g>
</g>
<g>
</g>
</svg>
