<svg width="243" height="182" viewBox="0 0 243 182" xmlns="http://www.w3.org/2000/svg" xmlns:xlink="http://www.w3.org/1999/xlink"><svg id="comment" data-name="Layer 1" width="66" height="66" viewBox="-1 -1 66 66" y="50" xmlns="http://www.w3.org/2000/svg"><defs><style>.acls-1{fill:#2f5572}</style></defs><title>comment</title><path class="acls-1" d="M.72.08A.67.67 0 0 0 0 .8v46.48a.72.72 0 0 0 .72.72H48l16 16V.72a.67.67 0 0 0-.72-.72H.8z"/></svg><svg id="facebook" data-name="Layer 1" width="23.23" height="44.01" viewBox="-1 -1 23.23 44.01" x="66" y="66" xmlns="http://www.w3.org/2000/svg"><defs><style>.bcls-1{fill:#fff}</style></defs><title>facebook</title><path class="bcls-1" d="M21.23.31V7H17.4a3.55 3.55 0 0 0-2.85.91 4.26 4.26 0 0 0-.74 2.72v4.77H21l-1 7.47h-6.19V42H6.27V22.85H0v-7.47h6.27V9.85q0-4.69 2.55-7.28A9 9 0 0 1 15.63 0a39.57 39.57 0 0 1 5.6.31z"/></svg><svg viewBox="-1 -1 66 66" width="66" height="66" id="fire" x="66" xmlns="http://www.w3.org/2000/svg"><path d="M44.835.185H21.474c-.587 0-1.062.445-1.062.994v13.908c0 .548.475.993 1.062.993l11.68 2.12 11.68-2.12c.587 0 1.063-.445 1.063-.993V1.179c0-.549-.476-.994-1.062-.994z" fill="#74dbc9"/><ellipse cx="53.33" cy="53.168" rx="9.557" ry="9.537" fill="#606268"/><ellipse cx="53.33" cy="53.168" rx="6.371" ry="6.358" fill="#74757b"/><ellipse cx="53.33" cy="53.168" rx="5.309" ry="5.298" fill="#ebebec"/><path d="M54.392 57.406a5.304 5.304 0 0 1-5.31-5.298c0-1.193.395-2.294 1.062-3.18a5.286 5.286 0 0 0-2.124 4.24 5.304 5.304 0 0 0 5.31 5.298 5.304 5.304 0 0 0 4.247-2.12 5.293 5.293 0 0 1-3.185 1.06z" fill="#d7d8d9"/><ellipse cx="10.855" cy="53.168" rx="9.557" ry="9.537" fill="#606268"/><ellipse cx="10.855" cy="53.168" rx="6.371" ry="6.358" fill="#74757b"/><ellipse cx="10.855" cy="53.168" rx="5.309" ry="5.298" fill="#ebebec"/><path d="M11.917 57.406a5.304 5.304 0 0 1-5.31-5.298c0-1.193.396-2.294 1.062-3.18a5.286 5.286 0 0 0-2.124 4.24 5.304 5.304 0 0 0 5.31 5.298 5.304 5.304 0 0 0 4.247-2.12 5.292 5.292 0 0 1-3.185 1.06z" fill="#d7d8d9"/><path d="M50.144 16.08H14.04c-.586 0-1.061.44-1.061.981V41.59c0 .542.475.981 1.061.981l19.114 1.06 16.99-1.06c.586 0 1.062-.44 1.062-.981V17.06c0-.542-.476-.981-1.062-.981z" fill="#fddd85"/><path d="M53.33 63.764H10.855C5 63.764.236 59.01.236 53.168.236 47.325 5 42.57 10.855 42.57H53.33c5.855 0 10.618 4.754 10.618 10.597 0 5.842-4.763 10.596-10.618 10.596zM10.855 44.69c-4.684 0-8.495 3.803-8.495 8.478 0 4.674 3.81 8.477 8.495 8.477H53.33c4.684 0 8.495-3.803 8.495-8.477 0-4.675-3.811-8.478-8.495-8.478H10.855z" fill="#eb7763"/><path d="M28.907 16.08H14.04c-.586 0-1.061.44-1.061.981V41.59c0 .542.475.981 1.061.981h14.867c.586 0 1.061-.44 1.061-.981V17.06c0-.542-.475-.981-1.061-.981z" fill="#fdd042"/><path d="M15.102 41.59V17.061c0-.542.476-.981 1.062-.981H14.04c-.586 0-1.061.44-1.061.981V41.59c0 .542.475.981 1.061.981h2.124c-.586 0-1.062-.44-1.062-.981z" fill="#f2c127"/><path d="M25.721 35.154h-8.495a1.06 1.06 0 0 0-1.062 1.06v3.178c0 .585.476 1.06 1.062 1.06h8.495a1.06 1.06 0 0 0 1.062-1.06v-3.179a1.06 1.06 0 0 0-1.062-1.06z" fill="#fff"/><path d="M204.8 128h-68.267v85.079c0 3.216 1.658 6.258 4.523 7.785 2.746 1.463 6.156 1.294 8.745-.432l20.866-13.909 20.867 13.911c2.652 1.767 6.225 1.887 8.987.295 2.718-1.565 4.281-4.642 4.281-7.739L204.8 128zm159.634 147.566l-34.133-34.133a8.534 8.534 0 0 0-12.068 0L284.1 275.566c-5.268 5.268-1.392 14.568 6.034 14.568h8.533v25.6a8.533 8.533 0 0 0 8.533 8.533h34.133a8.533 8.533 0 0 0 8.533-8.533v-25.6h8.533c7.427-.001 11.303-9.3 6.035-14.568z" transform="matrix(.12444 0 0 .12418 .236 .185)" fill="#e1a527"/><path d="M273.067 195.2a7.467 7.467 0 0 1-7.467-7.467v-17.067a7.467 7.467 0 1 1 14.934 0v17.067a7.468 7.468 0 0 1-7.467 7.467zm17.066 0a7.467 7.467 0 0 1-7.467-7.467v-17.067a7.467 7.467 0 1 1 14.934 0v17.067a7.467 7.467 0 0 1-7.467 7.467zm25.6 0a7.467 7.467 0 0 1-7.467-7.467v-17.067a7.467 7.467 0 1 1 14.934 0v17.067a7.467 7.467 0 0 1-7.467 7.467zm17.067 0a7.467 7.467 0 0 1-7.467-7.467v-17.067a7.467 7.467 0 1 1 14.934 0v17.067a7.467 7.467 0 0 1-7.467 7.467zm17.067 0a7.467 7.467 0 0 1-7.467-7.467v-17.067a7.467 7.467 0 1 1 14.934 0v17.067a7.468 7.468 0 0 1-7.467 7.467zm25.6 0a7.467 7.467 0 0 1-7.467-7.467v-17.067a7.467 7.467 0 1 1 14.934 0v17.067a7.468 7.468 0 0 1-7.467 7.467z" transform="matrix(.12444 0 0 .12418 .236 .185)" fill="#74757b"/><path d="M32.092.185H21.474c-.587 0-1.062.445-1.062.994v13.908c0 .548.475.993 1.062.993h10.618c.587 0 1.062-.445 1.062-.993V1.179c0-.549-.475-.994-1.062-.994z" fill="#6ac8b7"/><path d="M22.535 15.087V1.179c0-.549.476-.994 1.062-.994h-2.124c-.586 0-1.061.445-1.061.994v13.908c0 .548.475.993 1.061.993h2.124c-.586 0-1.062-.445-1.062-.993z" fill="#2db59f"/><path d="M32.092.185h-3.185s-.476 1.06-1.062 1.06H25.72c-.586 0-1.062-1.06-1.062-1.06h-3.185c-.587 0-1.062.445-1.062.994v13.908c0 .548.475.993 1.062.993h10.618c.587 0 1.062-.445 1.062-.993V1.179c0-.549-.475-.994-1.062-.994z" fill="#6ac8b7"/><path d="M28.907.185h-4.248v6.358c0 .585.476 1.06 1.062 1.06h2.124a1.06 1.06 0 0 0 1.062-1.06V.185z" fill="#ebebec"/><path d="M230.4 102.4h-34.133a8.533 8.533 0 0 1 0-17.066H230.4a8.533 8.533 0 0 1 0 17.066zm93.867-51.2h-34.133a8.533 8.533 0 0 1 0-17.066h34.133a8.533 8.533 0 0 1 0 17.066zm0 25.6h-34.133a8.533 8.533 0 0 1 0-17.066h34.133a8.533 8.533 0 0 1 0 17.066zm0 25.6h-34.133a8.533 8.533 0 0 1 0-17.066h34.133a8.533 8.533 0 0 1 0 17.066z" transform="matrix(.12444 0 0 .12418 .236 .185)" fill="#606268"/></svg><svg viewBox="-1 -1 66 66" width="66" height="66" id="globe" x="132" xmlns="http://www.w3.org/2000/svg"><path d="M61.562 30.386c-1.182.055-2.092 1.058-2.092 2.223v7.008a2.22 2.22 0 0 0-2.982.133l-5.808 5.808.025.025-.025.016h-4.395c-4.855 0-8.79 3.877-8.79 8.66v8.66A1.09 1.09 0 0 0 38.592 64h7.692a1.09 1.09 0 0 0 1.099-1.082v-4.33l6.592-4.33 9.89-9.743V32.548c0-1.23-1.043-2.22-2.304-2.162z" fill="#fde5a2"/><g fill="#fdd042"><path d="M417.972 378.594l3.917 3.917a8.676 8.676 0 0 0 12.318-.047l39.916-40.521c5.836-5.925 6.539-14.978 2.164-21.666l-58.315 58.317z" transform="matrix(.12662 0 0 .12474 -.414 .136)"/><path d="M490.305 242.517v104.602l-78.102 78.102-56.373 32.214a8.678 8.678 0 0 0-4.373 7.535V512h17.356a8.679 8.679 0 0 0 8.678-8.678V468.61l52.068-34.712 78.102-78.102v-95.948c0-9.583-7.773-17.328-17.356-17.331z" transform="matrix(.12662 0 0 .12474 -.414 .136)"/></g><path d="M2.44 30.386c1.181.055 2.09 1.058 2.09 2.223v7.008a2.22 2.22 0 0 1 2.983.133l5.808 5.808-.026.025.026.016h4.395c4.855 0 8.79 3.877 8.79 8.66v8.66A1.09 1.09 0 0 1 25.408 64h-7.692a1.09 1.09 0 0 1-1.099-1.082v-4.33l-6.592-4.33-9.89-9.742V32.548c0-1.23 1.042-2.22 2.304-2.162z" fill="#fde5a2"/><g fill="#fdd042"><path d="M94.028 378.594l-3.917 3.917a8.676 8.676 0 0 1-12.318-.047l-39.916-40.521c-5.836-5.925-6.539-14.978-2.164-21.666l58.315 58.317z" transform="matrix(.12662 0 0 .12474 -.414 .136)"/><path d="M21.695 242.517v104.602l78.102 78.102 56.373 32.214a8.678 8.678 0 0 1 4.373 7.535V512h-17.356a8.679 8.679 0 0 1-8.678-8.678V468.61l-52.068-34.712-78.102-78.101v-95.948c0-9.584 7.773-17.329 17.356-17.332z" transform="matrix(.12662 0 0 .12474 -.414 .136)"/></g><path d="M51.779 8.795H12.222a1.09 1.09 0 0 0-1.098 1.083v29.226a1.09 1.09 0 0 0 1.098 1.083H51.78a1.09 1.09 0 0 0 1.098-1.083V9.878a1.09 1.09 0 0 0-1.098-1.083z" fill="#6ac8b7"/><path d="M52.877 9.878a1.09 1.09 0 0 0-1.098-1.083H12.222a1.09 1.09 0 0 0-1.098 1.083v3.292h41.753V9.878z" fill="#2db59f"/><path d="M53.976.136H10.025a1.09 1.09 0 0 0-1.1 1.082v8.66a1.09 1.09 0 0 0 1.1 1.082h43.951a1.09 1.09 0 0 0 1.1-1.082v-8.66a1.09 1.09 0 0 0-1.1-1.082z" fill="#74dbc9"/><g fill="#2db59f"><path d="M257.643 162.712h-18.999a6.508 6.508 0 0 1-4.602-11.111l38.787-38.787h-51.542a8.679 8.679 0 0 0-8.678 8.678v52.068a43.15 43.15 0 0 0 8.469 25.716l36.565-36.564z" transform="matrix(.12662 0 0 .12474 -.414 .136)"/><path d="M291.213 112.839l-36.856 36.856h18.999a6.509 6.509 0 0 1 4.602 11.111l-47.673 47.675a43.233 43.233 0 0 0 17.038 7.594v18.23h-8.678a8.679 8.679 0 0 0 0 17.356h34.712a8.679 8.679 0 0 0 0-17.356h-8.678v-18.229c19.78-4.032 34.712-21.563 34.712-42.517v-52.068c-.001-4.624-3.62-8.391-8.178-8.652zM256 294.508a8.136 8.136 0 0 1-8.136-8.136v-8.678a8.136 8.136 0 0 1 16.272 0v8.678a8.135 8.135 0 0 1-8.136 8.136zm-34.712 0a8.136 8.136 0 0 1-8.136-8.136v-8.678a8.136 8.136 0 0 1 16.272 0v8.678a8.136 8.136 0 0 1-8.136 8.136zm-60.746 0a8.136 8.136 0 0 1-8.136-8.136v-8.678a8.136 8.136 0 0 1 16.272 0v8.678a8.136 8.136 0 0 1-8.136 8.136zm17.356 0a8.136 8.136 0 0 1-8.136-8.136v-8.678a8.136 8.136 0 0 1 16.272 0v8.678a8.136 8.136 0 0 1-8.136 8.136zm60.746 0a8.136 8.136 0 0 1-8.136-8.136v-8.678a8.136 8.136 0 0 1 16.272 0v8.678a8.136 8.136 0 0 1-8.136 8.136zm52.068 0a8.136 8.136 0 0 1-8.136-8.136v-8.678a8.135 8.135 0 0 1 8.136-8.136 8.135 8.135 0 0 1 8.136 8.136v8.678a8.136 8.136 0 0 1-8.136 8.136zm17.356 0a8.136 8.136 0 0 1-8.136-8.136v-8.678a8.136 8.136 0 1 1 16.272 0v8.678a8.136 8.136 0 0 1-8.136 8.136zm26.034 0a8.136 8.136 0 0 1-8.136-8.136v-8.678a8.135 8.135 0 0 1 8.136-8.136 8.135 8.135 0 0 1 8.136 8.136v8.678a8.136 8.136 0 0 1-8.136 8.136zm17.356 0a8.136 8.136 0 0 1-8.136-8.136v-8.678a8.136 8.136 0 1 1 16.272 0v8.678a8.136 8.136 0 0 1-8.136 8.136z" transform="matrix(.12662 0 0 .12474 -.414 .136)"/></g></svg><svg id="instagram" data-name="Layer 1" width="44.01" height="44.01" viewBox="-1 -1 44.01 44.01" x="198" xmlns="http://www.w3.org/2000/svg"><defs><style>.ecls-1{fill:#fff}</style></defs><title>instagram</title><path class="ecls-1" d="M37.25 35.49V17.77h-3.69a11.77 11.77 0 0 1 .57 3.58 12.12 12.12 0 0 1-1.75 6.36 12.76 12.76 0 0 1-4.76 4.59 13.13 13.13 0 0 1-6.56 1.7 12.78 12.78 0 0 1-9.19-3.71 12 12 0 0 1-3.83-9 11.77 11.77 0 0 1 .49-3.56H4.68v17.76a1.63 1.63 0 0 0 1.6 1.67h29.3a1.63 1.63 0 0 0 1.17-.47 1.59 1.59 0 0 0 .5-1.2zm-7.77-14.57A7.75 7.75 0 0 0 27 15.14a8.28 8.28 0 0 0-6-2.4 8.25 8.25 0 0 0-5.91 2.39 7.75 7.75 0 0 0-2.47 5.78 7.75 7.75 0 0 0 2.47 5.79A8.25 8.25 0 0 0 21 29.1a8.28 8.28 0 0 0 6-2.4 7.75 7.75 0 0 0 2.48-5.78zm7.76-9.84V6.56a1.84 1.84 0 0 0-.54-1.31 1.8 1.8 0 0 0-1.31-.56h-4.78a1.8 1.8 0 0 0-1.31.56 1.84 1.84 0 0 0-.54 1.31v4.52A1.87 1.87 0 0 0 30.6 13h4.8a1.87 1.87 0 0 0 1.85-1.89zM42 5.39v31.23A5.41 5.41 0 0 1 36.62 42H5.39a5.19 5.19 0 0 1-3.8-1.59A5.19 5.19 0 0 1 0 36.62V5.39a5.19 5.19 0 0 1 1.59-3.8A5.19 5.19 0 0 1 5.39 0h31.23a5.19 5.19 0 0 1 3.8 1.59A5.19 5.19 0 0 1 42 5.39z"/></svg><svg id="mail" data-name="Layer 1" width="66" height="50" viewBox="-1 -1 66 50" xmlns="http://www.w3.org/2000/svg"><defs><style>.fcls-1{fill:#2f5572}</style></defs><title>mail</title><path class="fcls-1" d="M0 0v8l32 16L64 8V0H0zm0 16v32h64V16L32 32z"/></svg><svg viewBox="-1 -1 66 66" width="66" height="66" id="rain" x="132" y="116" xmlns="http://www.w3.org/2000/svg"><path d="M63.35 20.643L32.666.465a1.125 1.125 0 0 0-1.23 0L.75 20.643c-.3.197-.48.526-.48.878v41.417C.27 63.525.76 64 1.366 64h61.368c.605 0 1.096-.476 1.096-1.062V21.521c0-.352-.18-.68-.48-.878z" fill="#f07b52"/><path d="M3.558 62.938V21.521c0-.352.18-.68.48-.878L33.695 1.142 32.666.465a1.125 1.125 0 0 0-1.231 0L.751 20.643c-.3.197-.48.526-.48.878v41.417C.27 63.525.76 64 1.366 64h3.288c-.605 0-1.096-.475-1.096-1.062z" fill="#e5563c"/><path d="M51.776 25.77H12.325c-.605 0-1.096.475-1.096 1.061v36.107c0 .586.49 1.062 1.096 1.062h39.45c.606 0 1.097-.476 1.097-1.062V26.831c0-.586-.491-1.062-1.096-1.062z" fill="#74757b"/><path d="M12.325 25.77c-.605 0-1.096.475-1.096 1.061v36.107c0 .586.49 1.062 1.096 1.062h2.192V25.77h-2.192z" fill="#606268"/><path d="M53.967 21.521H10.133c-.605 0-1.095.476-1.095 1.062v4.248c0 .587.49 1.062 1.095 1.062h43.834c.606 0 1.096-.475 1.096-1.062v-4.248c0-.586-.49-1.062-1.096-1.062z" fill="#c3c4c6"/><path d="M53.967 25.77H10.133c-.605 0-1.095-.476-1.095-1.063v2.124c0 .587.49 1.062 1.095 1.062h43.834c.606 0 1.096-.475 1.096-1.062v-2.124c0 .587-.49 1.062-1.096 1.062z" fill="#afb0b4"/><path d="M290.134 76.8h-68.267a8.533 8.533 0 0 1 0-17.066h68.267a8.533 8.533 0 0 1 0 17.066zm0 34.134h-68.267a8.533 8.533 0 0 1 0-17.066h68.267a8.533 8.533 0 0 1 0 17.066zm0 34.133h-68.267a8.533 8.533 0 0 1 0-17.066h68.267a8.533 8.533 0 0 1 0 17.066z" transform="matrix(.12842 0 0 .12445 -.825 .282)" fill="#e5563c"/><g fill="#fddd85"><path d="M204.8 273.067H102.4a8.533 8.533 0 0 0-8.533 8.533V384a8.533 8.533 0 0 0 8.533 8.533l51.2 8.533 51.2-8.533a8.533 8.533 0 0 0 8.533-8.533V281.6a8.532 8.532 0 0 0-8.533-8.533z" transform="matrix(.12842 0 0 .12445 -.825 .282)"/><path d="M204.8 392.534H102.4a8.533 8.533 0 0 0-8.533 8.533v102.4A8.533 8.533 0 0 0 102.4 512h102.4a8.533 8.533 0 0 0 8.533-8.533v-102.4a8.532 8.532 0 0 0-8.533-8.533z" transform="matrix(.12842 0 0 .12445 -.825 .282)"/></g><path d="M13.421 62.938V50.194c0-.586.49-1.061 1.096-1.061h-2.192c-.605 0-1.096.475-1.096 1.061v12.744c0 .587.49 1.062 1.096 1.062h2.192c-.605 0-1.096-.475-1.096-1.062z" fill="#fdd042"/><path d="M21.092 49.133h-4.383v5.31c0 .586.49 1.061 1.095 1.061h2.192c.605 0 1.096-.475 1.096-1.062v-5.31z" fill="#f2c127"/><path d="M21.092 61.876h-4.383c-.606 0-1.096-.475-1.096-1.062 0-.586.49-1.062 1.096-1.062h4.383c.605 0 1.096.476 1.096 1.062 0 .587-.49 1.062-1.096 1.062z" fill="#74757b"/><path d="M13.421 48.07V35.328c0-.587.49-1.062 1.096-1.062h-2.192c-.605 0-1.096.476-1.096 1.062V48.07c0 .586.49 1.061 1.096 1.061h2.192c-.605 0-1.096-.475-1.096-1.061z" fill="#fdd042"/><path d="M21.092 34.265h-4.383v5.31c0 .586.49 1.062 1.095 1.062h2.192c.605 0 1.096-.476 1.096-1.062v-5.31z" fill="#f2c127"/><path d="M21.092 47.009h-4.383c-.606 0-1.096-.476-1.096-1.062 0-.587.49-1.062 1.096-1.062h4.383c.605 0 1.096.475 1.096 1.062 0 .586-.49 1.062-1.096 1.062z" fill="#74757b"/><path d="M40.817 49.133h-13.15c-.605 0-1.096.475-1.096 1.061v12.744c0 .587.49 1.062 1.096 1.062h13.15c.606 0 1.096-.476 1.096-1.062V50.194c0-.586-.49-1.061-1.096-1.061z" fill="#fddd85"/><path d="M28.763 62.938V50.194c0-.586.49-1.061 1.096-1.061h-2.192c-.605 0-1.096.475-1.096 1.061v12.744c0 .587.49 1.062 1.096 1.062h2.192c-.605 0-1.096-.475-1.096-1.062z" fill="#fdd042"/><path d="M36.434 49.133H32.05v5.31c0 .586.491 1.061 1.096 1.061h2.192c.605 0 1.096-.475 1.096-1.062v-5.31z" fill="#f2c127"/><path d="M36.434 61.876H32.05c-.605 0-1.095-.475-1.095-1.062 0-.586.49-1.062 1.095-1.062h4.384c.605 0 1.096.476 1.096 1.062 0 .587-.491 1.062-1.096 1.062z" fill="#74757b"/></svg><svg viewBox="-1 -1 66 66" width="66" height="66" id="star" x="66" y="116" xmlns="http://www.w3.org/2000/svg"><ellipse cx="32.091" cy="32.112" rx="31.852" ry="31.887" fill="#74dbc9"/><path d="M36.642 59.445C19.05 59.445 4.79 45.168 4.79 27.558a31.776 31.776 0 0 1 7.17-20.155C4.807 13.251.24 22.147.24 32.113.24 49.723 14.5 64 32.09 64c9.955 0 18.842-4.572 24.682-11.733a31.695 31.695 0 0 1-20.131 7.178z" fill="#6ac8b7"/><path d="M63.922 33.252c.012-.427.02-.771.02-1.14 0-.368-.008-.71-.02-1.138H52.945c-.133-5.694-1.306-11.22-3.39-15.978a33.156 33.156 0 0 0 5.827-4.642 31.97 31.97 0 0 0-1.563-1.56 30.995 30.995 0 0 1-5.223 4.202 31.95 31.95 0 0 0-1.938-3.272C42.506 3.598 36.942.225 30.993.225c-5.95 0-11.512 3.374-15.665 9.5a31.313 31.313 0 0 0-1.344 2.174 31.021 31.021 0 0 1-3.62-3.1 32.018 32.018 0 0 0-1.563 1.565 33.189 33.189 0 0 0 4.146 3.502c-2.406 5.01-3.762 10.987-3.906 17.108H.261c-.013.427-.021.77-.021 1.139 0 .368.008.712.02 1.139h8.78c.144 6.121 1.501 12.097 3.907 17.108a33.293 33.293 0 0 0-4.146 3.511 31.97 31.97 0 0 0 1.563 1.56 31.03 31.03 0 0 1 3.62-3.102c.423.75.87 1.474 1.344 2.173C19.48 60.628 25.043 64 30.993 64c5.95 0 11.512-3.374 15.665-9.5a31.963 31.963 0 0 0 1.937-3.273 30.97 30.97 0 0 1 5.223 4.199 32.016 32.016 0 0 0 1.563-1.565 33.103 33.103 0 0 0-5.826-4.632c2.083-4.759 3.257-10.284 3.39-15.978h10.977zm-13.174-2.278h-9.876c-.042-4.128-.319-8.22-.81-11.943a32.536 32.536 0 0 0 7.584-2.933c1.849 4.328 2.969 9.467 3.102 14.876zM30.993 61.801c-1.359 0-3.427-2.16-5.157-8.22-.537-1.882-.994-3.972-1.367-6.216a30.669 30.669 0 0 1 7.622-.958c1.878 0 3.716.17 5.501.494-.385 2.421-.868 4.669-1.442 6.68-1.73 6.06-3.798 8.22-5.157 8.22zm1.098-17.593c-2.716 0-5.381.347-7.952.982-.502-3.7-.786-7.81-.828-11.938h15.364c-.04 3.986-.303 7.908-.768 11.486a33.3 33.3 0 0 0-5.816-.53zm-8.78-13.234c.042-4.128.326-8.238.828-11.939a33.14 33.14 0 0 0 7.952.973c1.971 0 3.915-.188 5.816-.525.465 3.578.728 7.505.768 11.49H23.311v.001zm7.682-28.55c1.359 0 3.427 2.16 5.157 8.22.574 2.012 1.057 4.26 1.442 6.68a30.776 30.776 0 0 1-5.5.495c-2.63 0-5.184-.333-7.623-.958.373-2.245.83-4.334 1.367-6.216 1.73-6.06 3.798-8.22 5.157-8.22zm15.712 11.691a30.536 30.536 0 0 1-6.964 2.74c-.396-2.465-.891-4.757-1.479-6.814-.841-2.95-1.827-5.258-2.93-6.894 4.6 1.553 8.6 5.521 11.373 10.968zM26.654 3.147c-1.103 1.636-2.089 3.945-2.93 6.894-.538 1.883-.998 3.964-1.376 6.193a30.62 30.62 0 0 1-6.545-3.1c2.742-4.942 6.531-8.529 10.85-9.987zM14.793 15.098a32.49 32.49 0 0 0 7.213 3.322c-.542 3.886-.848 8.141-.892 12.554h-9.876c.144-5.836 1.438-11.34 3.555-15.876zm-3.555 18.154h9.876c.044 4.413.35 8.658.892 12.544a32.555 32.555 0 0 0-7.213 3.342c-2.117-4.537-3.411-10.05-3.555-15.886zm4.565 17.84a30.616 30.616 0 0 1 6.545-3.1c.378 2.229.838 4.31 1.376 6.193.841 2.949 1.827 5.257 2.93 6.894-4.32-1.459-8.109-5.046-10.851-9.987zm19.53 9.987c1.102-1.637 2.088-3.945 2.93-6.894.587-2.058 1.082-4.35 1.478-6.814a30.517 30.517 0 0 1 6.963 2.74c-2.773 5.446-6.771 9.415-11.371 10.968zm12.313-12.961a32.485 32.485 0 0 0-7.584-2.914c.491-3.722.769-7.824.81-11.952h9.876c-.133 5.41-1.253 10.538-3.102 14.866z" fill="#2db59f"/><path d="M14.064 58.403a32.04 32.04 0 0 1-8.984-9.388c6.274-.873 17.78-4.589 29.287-19.18l-4.44-2.666a.518.518 0 0 1 .193-.956l13.935-1.993a.517.517 0 0 1 .59.475l.998 14.006a.517.517 0 0 1-.88.403l-3.571-3.575s-7.998 16.006-27.128 22.874z" fill="#ebebec"/><path d="M11.678 47.361c-2.55.915-4.79 1.403-6.598 1.654a32.04 32.04 0 0 0 8.984 9.388 49.88 49.88 0 0 0 6.897-3.085 32.009 32.009 0 0 1-9.283-7.957z" fill="#d7d8d9"/></svg><svg id="twitter" data-name="Layer 1" width="53.78" height="44.06" viewBox="-1 -1 53.78 44.06" x="132" y="66" xmlns="http://www.w3.org/2000/svg"><defs><style>.icls-1{fill:#fff}</style></defs><title>twitter</title><path class="icls-1" d="M51.78 5a22.23 22.23 0 0 1-5.32 5.52v1.38a30.15 30.15 0 0 1-1.25 8.53 30.81 30.81 0 0 1-3.76 8.13 32.1 32.1 0 0 1-6.06 6.92 27 27 0 0 1-8.48 4.8 31 31 0 0 1-10.62 1.8A29.47 29.47 0 0 1 0 37.29a22.71 22.71 0 0 0 2.56.13 20.78 20.78 0 0 0 13.17-4.53 10.63 10.63 0 0 1-9.92-7.36 13.45 13.45 0 0 0 2 .16 11 11 0 0 0 2.79-.36 10.44 10.44 0 0 1-6.09-3.67 10.25 10.25 0 0 1-2.41-6.75v-.13a10.52 10.52 0 0 0 4.8 1.34 10.6 10.6 0 0 1-3.45-3.78 10.34 10.34 0 0 1-1.28-5.07 10.4 10.4 0 0 1 1.45-5.33 30.08 30.08 0 0 0 9.71 7.83A29.57 29.57 0 0 0 25.53 13a11.79 11.79 0 0 1-.26-2.43 10.23 10.23 0 0 1 3-7.48 10.64 10.64 0 0 1 15 0l.21.22A20.81 20.81 0 0 0 50.33.8a10.3 10.3 0 0 1-4.67 5.85A21.14 21.14 0 0 0 51.78 5z"/></svg><svg viewBox="-1 -1 66 66" width="66" height="66" id="wifi" y="116" xmlns="http://www.w3.org/2000/svg"><path d="M58.857.274H5.8a5.314 5.314 0 0 0-5.306 5.31V43.82c0 2.928 2.38 5.31 5.306 5.31h53.056a5.314 5.314 0 0 0 5.305-5.31V5.585A5.314 5.314 0 0 0 58.856.274z" fill="#ebebec"/><path d="M3.679 43.82V5.585A5.314 5.314 0 0 1 8.984.274H5.801a5.314 5.314 0 0 0-5.306 5.31V43.82c0 2.928 2.38 5.31 5.306 5.31h3.183a5.314 5.314 0 0 1-5.305-5.31z" fill="#d7d8d9"/><path d="M40.8 59.562l-2.122-11.684a1.061 1.061 0 0 0-1.044-.872h-10.61c-.514 0-.953.367-1.045.872l-2.122 11.684a1.063 1.063 0 0 0 1.044 1.252h14.856a1.06 1.06 0 0 0 1.044-1.252z" fill="#6ac8b7"/><path d="M38.678 47.879a1.061 1.061 0 0 0-1.044-.873h-10.61c-.514 0-.953.367-1.045.873l-.613 3.376h13.926l-.614-3.376z" fill="#2db59f"/><path d="M41.879 58.69h-19.1a3.189 3.189 0 0 0-3.183 3.186v1.062c0 .586.475 1.062 1.06 1.062h23.345c.586 0 1.061-.476 1.061-1.062v-1.062a3.188 3.188 0 0 0-3.183-3.187z" fill="#74dbc9"/><path d="M170.667 503.467v-8.533c0-14.115 11.485-25.6 25.6-25.6H179.2c-14.115 0-25.6 11.485-25.6 25.6v8.533a8.533 8.533 0 0 0 8.533 8.533H179.2a8.533 8.533 0 0 1-8.533-8.533zM512 42.667C512 19.14 492.86 0 469.333 0H42.667C19.14 0 0 19.14 0 42.667V51.2h512v-8.533zM42.667 392.533h426.667c23.526 0 42.667-19.14 42.667-42.667H0c0 23.527 19.14 42.667 42.667 42.667z" transform="matrix(.12435 0 0 .12446 .495 .274)" fill="#6ac8b7"/><path d="M68.267 0h-25.6C19.14 0 0 19.14 0 42.667V51.2h25.6v-8.533C25.6 19.14 44.74 0 68.267 0zM25.6 349.867H0c0 23.526 19.14 42.667 42.667 42.667h25.6C44.74 392.533 25.6 373.393 25.6 349.867z" transform="matrix(.12435 0 0 .12446 .495 .274)" fill="#2db59f"/><path d="M48.246 40.634H16.412a1.062 1.062 0 0 1 0-2.124h31.834a4.251 4.251 0 0 0 4.244-4.249 4.251 4.251 0 0 0-4.244-4.248H33.39c-3.51 0-6.367-2.86-6.367-6.373 0-3.514 2.856-6.372 6.367-6.372h19.1a1.062 1.062 0 0 1 0 2.124h-19.1a4.251 4.251 0 0 0-4.244 4.248 4.251 4.251 0 0 0 4.244 4.248h14.856c3.51 0 6.366 2.86 6.366 6.373 0 3.514-2.856 6.373-6.366 6.373z" fill="#606268"/><path d="M16.412 15.143c-5.266 0-9.55 4.288-9.55 9.56 0 4.935 7.841 14.478 8.736 15.55a1.061 1.061 0 0 0 1.629 0c.894-1.072 8.735-10.615 8.735-15.55 0-5.272-4.284-9.56-9.55-9.56z" fill="#e5563c"/><path d="M8.984 25.764c0-5.27 4.284-9.559 9.55-9.559 1.11 0 2.175.193 3.167.543a9.489 9.489 0 0 0-5.289-1.605c-5.266 0-9.55 4.288-9.55 9.56 0 4.934 7.842 14.477 8.736 15.55a1.061 1.061 0 0 0 1.414.193c-2.165-2.701-8.028-10.414-8.028-14.682z" fill="#cf442b"/><ellipse cx="16.412" cy="24.702" rx="6.367" ry="6.373" fill="#ebebec"/><ellipse cx="16.412" cy="24.702" rx="4.244" ry="4.248" fill="#d7d8d9"/><path d="M55.673 11.957h-6.366c-.586 0-1.061.476-1.061 1.062v5.31c0 .587.475 1.063 1.06 1.063h6.367c.586 0 1.061-.476 1.061-1.062v-5.31c0-.587-.475-1.063-1.06-1.063z" fill="#fdd042"/><path d="M53.551 14.081v-1.684l1.812-1.813a1.06 1.06 0 1 0-1.5-1.502l-1.373 1.373-1.372-1.373a1.06 1.06 0 1 0-1.5 1.502l1.81 1.813v1.684h-3.182v2.124h3.183v3.187h2.122v-3.187h3.184v-2.124H53.55z" fill="#f07b52"/></svg><svg id="youtube" data-name="Layer 1" width="36.75" height="44" viewBox="-1 -1 36.75 44" x="198" y="44.01" xmlns="http://www.w3.org/2000/svg"><defs><style>.kcls-1{fill:#fff}</style></defs><title>youtube</title><path class="kcls-1" d="M22.13 29.15v5q0 1.57-.91 1.57a1.5 1.5 0 0 1-1.06-.52v-7.11a1.5 1.5 0 0 1 1.06-.54q.91 0 .91 1.6zm7.92 0v1.08h-2.1v-1.06q0-1.59 1.06-1.59t1 1.59zM7.42 24h2.5v-2.14h-7.3v2.2h2.46V37.4h2.34V24zm6.75 13.4h2.09V25.82h-2.09v8.86a1.86 1.86 0 0 1-1.31 1 .48.48 0 0 1-.49-.47 6.52 6.52 0 0 1 0-.82v-8.57h-2.14V35a5.79 5.79 0 0 0 .19 1.71 1.26 1.26 0 0 0 1.36.87 3.43 3.43 0 0 0 2.39-1.43v1.25zm10.05-3.47v-4.6A8.33 8.33 0 0 0 24 27a1.63 1.63 0 0 0-1.67-1.31A2.82 2.82 0 0 0 20.16 27v-5.1h-2.08v15.5h2.09v-1.13a2.91 2.91 0 0 0 2.18 1.31A1.62 1.62 0 0 0 24 36.27a8.61 8.61 0 0 0 .22-2.35zm7.92-.24v-.3H30a11.6 11.6 0 0 1 0 1.43.9.9 0 0 1-.94.85q-1.08 0-1.08-1.61V32h4.19v-2.41a4.65 4.65 0 0 0-.66-2.72 3.2 3.2 0 0 0-5 0 4.52 4.52 0 0 0-.66 2.72v4.05a4.4 4.4 0 0 0 .66 2.72 3 3 0 0 0 2.49 1.2 2.9 2.9 0 0 0 3-2.51 10.31 10.31 0 0 0 .09-1.36zM17.89 12.3V7.38q0-1.61-1-1.61t-1 1.61v4.92q0 1.64 1 1.64t1-1.64zm16.85 17.6a40.6 40.6 0 0 1-.61 8.2 4.45 4.45 0 0 1-1.36 2.32 4.1 4.1 0 0 1-2.39 1.08 125.31 125.31 0 0 1-13 .49 125.31 125.31 0 0 1-13-.49A4.15 4.15 0 0 1 2 40.42 4.28 4.28 0 0 1 .63 38.1 39.76 39.76 0 0 1 0 29.9a40.6 40.6 0 0 1 .61-8.2A4.45 4.45 0 0 1 2 19.37a4.25 4.25 0 0 1 2.41-1.1q4.29-.47 13-.47t13 .47a4.4 4.4 0 0 1 3.75 3.42 39.76 39.76 0 0 1 .58 8.21zM11.35 0h2.39l-2.83 9.35v6.35H8.57V9.35a39.68 39.68 0 0 0-1.43-5Q6.27 2 5.61 0H8.1l1.67 6.16zM20 7.8v4.1a4.59 4.59 0 0 1-.66 2.76 2.88 2.88 0 0 1-2.49 1.19 2.9 2.9 0 0 1-2.46-1.19 4.68 4.68 0 0 1-.66-2.76V7.8a4.59 4.59 0 0 1 .66-2.74 2.9 2.9 0 0 1 2.46-1.19 2.88 2.88 0 0 1 2.49 1.19A4.59 4.59 0 0 1 20 7.8zM27.87 4v11.7h-2.13v-1.27a3.37 3.37 0 0 1-2.41 1.45A1.31 1.31 0 0 1 22 15a6 6 0 0 1-.19-1.76V4h2.13v8.6a6.14 6.14 0 0 0 0 .82.49.49 0 0 0 .47.52 1.87 1.87 0 0 0 1.31-1V4h2.16z"/></svg></svg>