<?xml version="1.0" encoding="UTF-8" standalone="no"?>
<!-- Generator: Adobe Illustrator 19.0.0, SVG Export Plug-In . SVG Version: 6.00 Build 0)  -->

<svg
   xmlns:dc="http://purl.org/dc/elements/1.1/"
   xmlns:cc="http://creativecommons.org/ns#"
   xmlns:rdf="http://www.w3.org/1999/02/22-rdf-syntax-ns#"
   xmlns:svg="http://www.w3.org/2000/svg"
   xmlns="http://www.w3.org/2000/svg"
   xmlns:sodipodi="http://sodipodi.sourceforge.net/DTD/sodipodi-0.dtd"
   xmlns:inkscape="http://www.inkscape.org/namespaces/inkscape"
   version="1.1"
   id="Layer_1"
   x="0px"
   y="0px"
   viewBox="0 0 64 64"
   xml:space="preserve"
   sodipodi:docname="globe.svg"
   width="64"
   height="64"
   inkscape:version="0.92.3 (2405546, 2018-03-11)"><metadata
   id="metadata47"><rdf:RDF><cc:Work
       rdf:about=""><dc:format>image/svg+xml</dc:format><dc:type
         rdf:resource="http://purl.org/dc/dcmitype/StillImage" /><dc:title></dc:title></cc:Work></rdf:RDF></metadata><defs
   id="defs45" /><sodipodi:namedview
   pagecolor="#ffffff"
   bordercolor="#666666"
   borderopacity="1"
   objecttolerance="10"
   gridtolerance="10"
   guidetolerance="10"
   inkscape:pageopacity="0"
   inkscape:pageshadow="2"
   inkscape:window-width="640"
   inkscape:window-height="480"
   id="namedview43"
   showgrid="false"
   inkscape:zoom="2.6074563"
   inkscape:cx="36.711601"
   inkscape:cy="43.007829"
   inkscape:window-x="0"
   inkscape:window-y="0"
   inkscape:window-maximized="0"
   inkscape:current-layer="Layer_1" />
<ellipse
   style="fill:#74dbc9;stroke-width:0.12548724"
   cx="32.218765"
   cy="31.966913"
   id="circle2"
   rx="32.215759"
   ry="32.032711" />
<path
   style="fill:#6ac8b7;stroke-width:0.12548724"
   d="M 36.821555,59.424112 C 19.0293,59.424112 4.6057958,45.082561 4.6057958,27.3914 c 0,-7.680118 2.7195163,-14.727829 7.2515822,-20.2461962 C 4.6231625,13.019317 0.00350861,21.956369 0.00350861,31.967412 c 0,17.691162 14.42350339,32.032712 32.21575939,32.032712 10.068251,0 19.056622,-4.593406 24.964177,-11.786516 -5.54965,4.506565 -12.637885,7.210504 -20.36189,7.210504 z"
   id="path4"
   inkscape:connector-curvature="0" />
<path
   style="fill:#2db59f;stroke-width:0.12548724"
   d="m 64.413885,33.111477 c 0.01246,-0.428946 0.02114,-0.77418 0.02114,-1.144065 0,-0.370011 -0.0087,-0.714994 -0.02114,-1.144065 H 53.31169 C 53.177161,25.103268 51.990188,19.552992 49.883413,14.772141 51.993712,13.455521 53.970489,11.903906 55.775992,10.109789 55.267325,9.5677245 54.739907,9.0481843 54.194872,8.5422827 52.596511,10.130436 50.824987,11.548912 48.912391,12.7633 48.315129,11.614104 47.661992,10.515961 46.952602,9.4763801 42.752894,3.3226005 37.125849,-0.06580083 31.108431,-0.06580083 c -6.017416,0 -11.64421,3.38940243 -15.844044,9.54330713 C 14.78542,10.179236 14.332754,10.908871 13.904754,11.661654 12.605024,10.716921 11.380172,9.6764633 10.24379,8.5474131 9.6987542,9.0533144 9.1713363,9.5777353 8.6626698,10.119924 c 1.3120624,1.303732 2.7153632,2.463815 4.1936682,3.517412 -2.43347,5.033363 -3.8058132,11.037111 -3.9510386,17.18626 H 0.02465061 c -0.01245867,0.428947 -0.021142,0.774056 -0.021142,1.144066 0,0.36976 0.00868333,0.714994 0.021142,1.144066 H 8.9049219 c 0.1452254,6.149149 1.5176931,12.152647 3.9510381,17.186136 -1.478305,1.053846 -2.8816046,2.223564 -4.1936678,3.527296 0.5086666,0.542064 1.0360842,1.061605 1.5811198,1.567506 1.136383,-1.12905 2.361235,-2.172136 3.660965,-3.116743 0.428125,0.752783 0.880791,1.480916 1.359632,2.182646 4.199709,6.153904 9.826502,9.542431 15.844045,9.542431 6.017417,0 11.644211,-3.389403 15.844045,-9.543307 0.709515,-1.039582 1.362527,-2.139226 1.959788,-3.288297 1.912848,1.214389 3.684121,2.630237 5.282482,4.21839 0.545035,-0.505901 1.072453,-1.030322 1.581119,-1.572512 -1.805502,-1.793991 -3.782279,-3.335846 -5.892579,-4.652466 2.10665,-4.780852 3.293748,-10.331127 3.428278,-16.051206 H 64.413885 Z M 51.089262,30.823472 h -9.989094 c -0.04191,-4.147066 -0.322416,-8.258095 -0.81963,-11.997361 2.675344,-0.657811 5.24888,-1.653096 7.671276,-2.946317 1.869935,4.347775 3.002794,9.509522 3.137448,14.943678 z M 31.108431,61.791075 c -1.374481,0 -3.466533,-2.169258 -5.215909,-8.257468 -0.543399,-1.890844 -1.005755,-3.989778 -1.38241,-6.244625 2.466064,-0.627653 5.049039,-0.962001 7.709156,-0.962001 1.898753,0 3.757991,0.170803 5.56387,0.496392 -0.389868,2.432156 -0.878147,4.689756 -1.458798,6.710234 -1.749375,6.08821 -3.841426,8.257468 -5.215909,8.257468 z m 1.110837,-17.673268 c -2.747077,0 -5.443311,0.348988 -8.043526,0.986902 C 23.66783,41.38659 23.381154,37.258543 23.338367,33.111477 h 15.539877 c -0.04103,4.004043 -0.306937,7.944394 -0.776969,11.538759 -1.922286,-0.338477 -3.888618,-0.532429 -5.882007,-0.532429 z M 23.338493,30.823472 c 0.04266,-4.147066 0.329337,-8.275113 0.837375,-11.993232 2.600466,0.637914 5.29645,0.977017 8.043526,0.977017 1.993389,0 3.959469,-0.188948 5.882134,-0.527549 0.470157,3.594365 0.736068,7.539596 0.776968,11.543639 H 23.338493 Z M 31.108431,2.143999 c 1.374483,0 3.466534,2.1692575 5.215909,8.257468 0.580651,2.020353 1.06893,4.278078 1.458798,6.710109 -1.805753,0.325589 -3.665117,0.496392 -5.56387,0.496392 -2.660117,0 -5.243092,-0.334348 -7.709156,-0.962002 0.376655,-2.254846 0.839011,-4.353905 1.38241,-6.244624 1.749376,-6.0880855 3.841428,-8.257343 5.215909,-8.257343 z M 46.999543,13.887596 C 44.797628,15.074956 42.436268,16.0058 39.956361,16.63946 39.555543,14.164133 39.054805,11.861738 38.460815,9.7945856 37.609724,6.8323782 36.612903,4.5134649 35.497663,2.869504 c 4.652751,1.5603739 8.696663,5.5465224 11.50188,11.018092 z M 26.719326,2.869504 C 25.604085,4.5134649 24.607265,6.8322531 23.756174,9.7945856 23.212397,11.687056 22.746895,13.777106 22.364451,16.016061 20.02159,15.235874 17.803063,14.18478 15.744738,12.901569 18.518368,7.9377786 22.350608,4.3345287 26.719326,2.869504 Z M 14.722748,14.874998 c 2.291517,1.410844 4.738704,2.523001 7.296132,3.337099 -0.548686,3.903562 -0.858139,8.178386 -0.902311,12.611499 h -9.988968 c 0.145477,-5.863227 1.45389,-11.390979 3.595147,-15.948598 z m -3.595147,18.236479 h 9.989093 c 0.04417,4.433114 0.353626,8.698052 0.902311,12.601616 -2.557553,0.814097 -5.004614,1.946025 -7.29613,3.356868 C 12.581491,44.512218 11.273078,38.97458 11.127601,33.111477 Z m 4.616885,17.921902 c 2.058325,-1.28321 4.276978,-2.33443 6.619713,-3.114491 0.382444,2.239206 0.847945,4.329005 1.391723,6.221475 0.851091,2.962207 1.847912,5.281121 2.963152,6.925082 C 22.350608,59.60042 18.518368,55.99717 15.744486,51.033379 Z m 19.753051,10.032066 c 1.115241,-1.643836 2.112061,-3.96275 2.963153,-6.925082 0.59399,-2.067152 1.094728,-4.369422 1.495545,-6.844874 2.480033,0.633535 4.841267,1.564253 7.043182,2.751864 -2.805091,5.471569 -6.849003,9.457843 -11.50188,11.018092 z M 47.95194,48.045269 c -2.422396,-1.29322 -4.995931,-2.268611 -7.671276,-2.926545 0.497215,-3.739267 0.777724,-7.860181 0.81963,-12.007247 h 9.989094 c -0.13478,5.434156 -1.267639,10.586143 -3.137448,14.933792 z"
   id="path6"
   inkscape:connector-curvature="0" />
<path
   style="fill:#ebebec;stroke-width:0.12548724"
   d="M 13.985924,58.377022 C 10.346731,55.888056 7.2480431,52.675213 4.8993929,48.946833 11.245266,48.06992 22.882682,44.337035 34.520474,29.679406 l -4.489907,-2.678788 c -0.422085,-0.251888 -0.292213,-0.891177 0.19506,-0.960375 l 14.094544,-2.002084 c 0.300267,-0.04267 0.573854,0.176935 0.595374,0.477623 l 1.010789,14.069642 c 0.03448,0.48 -0.548937,0.744901 -0.891236,0.404672 l -3.61113,-3.590613 c -1.26e-4,0 -8.089207,16.078985 -27.438044,22.977539 z"
   id="path8"
   inkscape:connector-curvature="0" />
<path
   style="fill:#d7d8d9;stroke-width:0.12548724"
   d="m 11.572086,47.285228 c -2.5785691,0.918832 -4.845294,1.408967 -6.6726931,1.661605 2.3487761,3.72838 5.4473381,6.941349 9.0865311,9.430189 2.513634,-0.896183 4.835479,-1.948278 6.976107,-3.098976 -3.626232,-2.04325 -6.814521,-4.765209 -9.389945,-7.992818 z"
   id="path10"
   inkscape:connector-curvature="0" />
<g
   id="g12"
   transform="translate(0,-448)">
</g>
<g
   id="g14"
   transform="translate(0,-448)">
</g>
<g
   id="g16"
   transform="translate(0,-448)">
</g>
<g
   id="g18"
   transform="translate(0,-448)">
</g>
<g
   id="g20"
   transform="translate(0,-448)">
</g>
<g
   id="g22"
   transform="translate(0,-448)">
</g>
<g
   id="g24"
   transform="translate(0,-448)">
</g>
<g
   id="g26"
   transform="translate(0,-448)">
</g>
<g
   id="g28"
   transform="translate(0,-448)">
</g>
<g
   id="g30"
   transform="translate(0,-448)">
</g>
<g
   id="g32"
   transform="translate(0,-448)">
</g>
<g
   id="g34"
   transform="translate(0,-448)">
</g>
<g
   id="g36"
   transform="translate(0,-448)">
</g>
<g
   id="g38"
   transform="translate(0,-448)">
</g>
<g
   id="g40"
   transform="translate(0,-448)">
</g>
</svg>