<?xml version="1.0" encoding="UTF-8" standalone="no"?>
<!-- Generator: Adobe Illustrator 19.0.0, SVG Export Plug-In . SVG Version: 6.00 Build 0)  -->

<svg
   xmlns:dc="http://purl.org/dc/elements/1.1/"
   xmlns:cc="http://creativecommons.org/ns#"
   xmlns:rdf="http://www.w3.org/1999/02/22-rdf-syntax-ns#"
   xmlns:svg="http://www.w3.org/2000/svg"
   xmlns="http://www.w3.org/2000/svg"
   xmlns:sodipodi="http://sodipodi.sourceforge.net/DTD/sodipodi-0.dtd"
   xmlns:inkscape="http://www.inkscape.org/namespaces/inkscape"
   version="1.1"
   id="Layer_1"
   x="0px"
   y="0px"
   viewBox="0 0 64 64"
   xml:space="preserve"
   sodipodi:docname="returns.svg"
   width="64"
   height="64"
   inkscape:version="0.92.3 (2405546, 2018-03-11)"><metadata
   id="metadata103"><rdf:RDF><cc:Work
       rdf:about=""><dc:format>image/svg+xml</dc:format><dc:type
         rdf:resource="http://purl.org/dc/dcmitype/StillImage" /><dc:title></dc:title></cc:Work></rdf:RDF></metadata><defs
   id="defs101" /><sodipodi:namedview
   pagecolor="#ffffff"
   bordercolor="#666666"
   borderopacity="1"
   objecttolerance="10"
   gridtolerance="10"
   guidetolerance="10"
   inkscape:pageopacity="0"
   inkscape:pageshadow="2"
   inkscape:window-width="640"
   inkscape:window-height="480"
   id="namedview99"
   showgrid="false"
   inkscape:zoom="1.84375"
   inkscape:cx="33.09764"
   inkscape:cy="56.810938"
   inkscape:window-x="0"
   inkscape:window-y="0"
   inkscape:window-maximized="0"
   inkscape:current-layer="Layer_1" />
<path
   style="fill:#74dbc9;stroke-width:0.12499914"
   d="M 44.799387,0 H 21.333083 C 20.743966,0 20.266472,0.44774995 20.266472,0.99999996 V 15 c 0,0.55225 0.47762,1 1.066611,1 L 33.066298,18.133375 44.799387,16 c 0.589117,0 1.066611,-0.44775 1.066611,-1 V 0.99999996 C 45.865998,0.44774995 45.388504,0 44.799387,0 Z"
   id="path2"
   inkscape:connector-curvature="0" />
<ellipse
   style="fill:#606268;stroke-width:0.12499914"
   cx="53.332645"
   cy="53.333374"
   id="circle4"
   rx="9.5998697"
   ry="9.6000004" />
<ellipse
   style="fill:#74757b;stroke-width:0.12499914"
   cx="53.332645"
   cy="53.333374"
   id="circle6"
   rx="6.3999124"
   ry="6.4000001" />
<ellipse
   style="fill:#ebebec;stroke-width:0.12499914"
   cx="53.332645"
   cy="53.333374"
   id="circle8"
   rx="5.333302"
   ry="5.333375" />
<path
   style="fill:#d7d8d9;stroke-width:0.12499914"
   d="m 54.399256,57.6 c -2.945459,0 -5.333302,-2.387875 -5.333302,-5.333375 0,-1.200625 0.39712,-2.308625 1.06661,-3.2 -1.295232,0.973125 -2.133221,2.521875 -2.133221,4.26675 0,2.9455 2.387843,5.333375 5.333303,5.333375 1.744726,0 3.293705,-0.838 4.266567,-2.133375 C 56.70785,57.203 55.599864,57.6 54.399256,57.6 Z"
   id="path10"
   inkscape:connector-curvature="0" />
<ellipse
   style="fill:#606268;stroke-width:0.12499914"
   cx="10.66648"
   cy="53.333374"
   id="circle12"
   rx="9.5998697"
   ry="9.6000004" />
<ellipse
   style="fill:#74757b;stroke-width:0.12499914"
   cx="10.66648"
   cy="53.333374"
   id="circle14"
   rx="6.3999124"
   ry="6.4000001" />
<ellipse
   style="fill:#ebebec;stroke-width:0.12499914"
   cx="10.66648"
   cy="53.333374"
   id="circle16"
   rx="5.333302"
   ry="5.333375" />
<path
   style="fill:#d7d8d9;stroke-width:0.12499914"
   d="m 11.733214,57.6 c -2.9454591,0 -5.3333015,-2.387875 -5.3333015,-5.333375 0,-1.200625 0.3971195,-2.308625 1.0666104,-3.2 -1.2953573,0.973125 -2.1333458,2.521875 -2.1333458,4.266625 0,2.9455 2.3878423,5.333375 5.3333019,5.333375 1.744726,0 3.293705,-0.838 4.266567,-2.133375 C 14.041808,57.203 12.933823,57.6 11.733214,57.6 Z"
   id="path18"
   inkscape:connector-curvature="0" />
<path
   style="fill:#fddd85;stroke-width:0.12499914"
   d="M 50.13269,16 H 13.866435 c -0.589116,0 -1.06661,0.442125 -1.06661,0.987625 V 41.679 c 0,0.5455 0.477618,0.987625 1.06661,0.987625 l 19.199738,1.066625 17.066391,-1.066625 c 0.589117,0 1.066611,-0.442125 1.066611,-0.987625 V 16.987625 C 51.1993,16.442125 50.721681,16 50.13269,16 Z"
   id="path20"
   inkscape:connector-curvature="0" />
<path
   style="fill:#eb7763;stroke-width:0.12499914"
   d="M 53.332646,64 H 10.666479 C 4.7850595,64 0,59.214875 0,53.333375 0,47.451875 4.7850595,42.66675 10.666479,42.66675 h 42.666042 c 5.881544,0 10.666479,4.785125 10.666479,10.666625 C 63.999,59.214875 59.214065,64 53.332646,64 Z M 10.666479,44.8 c -4.7053105,0 -8.5332582,3.828 -8.5332582,8.533375 0,4.705375 3.8279477,8.533375 8.5332582,8.533375 h 42.666042 c 4.705311,0 8.533258,-3.828 8.533258,-8.533375 C 61.865779,48.628 58.037832,44.8 53.332646,44.8 Z"
   id="path22"
   inkscape:connector-curvature="0" />
<path
   style="fill:#fdd042;stroke-width:0.12499914"
   d="M 28.799606,16 H 13.866435 c -0.589116,0 -1.06661,0.442125 -1.06661,0.987625 V 41.679 c 0,0.5455 0.477618,0.987625 1.06661,0.987625 h 14.933171 c 0.589117,0 1.066611,-0.442125 1.066611,-0.987625 V 16.987625 C 29.866217,16.442125 29.388723,16 28.799606,16 Z"
   id="path24"
   inkscape:connector-curvature="0" />
<path
   style="fill:#f2c127;stroke-width:0.12499914"
   d="m 14.933171,41.679125 v -24.6915 C 14.933171,16.442125 15.410789,16 15.999781,16 h -2.133346 c -0.589116,0 -1.06661,0.442125 -1.06661,0.987625 V 41.679 c 0,0.5455 0.477618,0.987625 1.06661,0.987625 h 2.133346 c -0.589117,0 -1.06661,-0.442125 -1.06661,-0.9875 z"
   id="path26"
   inkscape:connector-curvature="0" />
<path
   style="fill:#ffffff;stroke-width:0.12499914"
   d="m 25.59965,35.2 h -8.533258 c -0.589117,0 -1.066611,0.477625 -1.066611,1.066625 v 3.2 c 0,0.589125 0.477618,1.066625 1.066611,1.066625 h 8.533258 c 0.589117,0 1.06661,-0.477625 1.06661,-1.066625 v -3.2 c 0,-0.589 -0.477493,-1.066625 -1.06661,-1.066625 z"
   id="path28"
   inkscape:connector-curvature="0" />
<g
   id="g34"
   transform="scale(0.12499829,0.125)">
	<path
   style="fill:#e1a527"
   d="m 204.8,128 h -68.267 v 85.079 c 0,3.216 1.658,6.258 4.523,7.785 2.746,1.463 6.156,1.294 8.745,-0.432 l 20.866,-13.909 20.867,13.911 c 2.652,1.767 6.225,1.887 8.987,0.295 2.718,-1.565 4.281,-4.642 4.281,-7.739 z"
   id="path30"
   inkscape:connector-curvature="0" />
	<path
   style="fill:#e1a527"
   d="m 364.434,275.566 -34.133,-34.133 c -3.333,-3.332 -8.735,-3.332 -12.068,0 L 284.1,275.566 c -5.268,5.268 -1.392,14.568 6.034,14.568 h 8.533 v 25.6 c 0,4.713 3.821,8.533 8.533,8.533 h 34.133 c 4.713,0 8.533,-3.821 8.533,-8.533 v -25.6 h 8.533 c 7.427,-0.001 11.303,-9.3 6.035,-14.568 z"
   id="path32"
   inkscape:connector-curvature="0" />
</g>
<g
   id="g48"
   transform="scale(0.12499829,0.125)">
	<path
   style="fill:#74757b"
   d="m 273.067,195.2 c -4.124,0 -7.467,-3.343 -7.467,-7.467 v -17.067 c 0,-4.124 3.343,-7.467 7.467,-7.467 4.124,0 7.467,3.343 7.467,7.467 v 17.067 c -10e-4,4.124 -3.344,7.467 -7.467,7.467 z"
   id="path36"
   inkscape:connector-curvature="0" />
	<path
   style="fill:#74757b"
   d="m 290.133,195.2 c -4.124,0 -7.467,-3.343 -7.467,-7.467 v -17.067 c 0,-4.124 3.343,-7.467 7.467,-7.467 4.124,0 7.467,3.343 7.467,7.467 v 17.067 c 0,4.124 -3.343,7.467 -7.467,7.467 z"
   id="path38"
   inkscape:connector-curvature="0" />
	<path
   style="fill:#74757b"
   d="m 315.733,195.2 c -4.124,0 -7.467,-3.343 -7.467,-7.467 v -17.067 c 0,-4.124 3.343,-7.467 7.467,-7.467 4.124,0 7.467,3.343 7.467,7.467 v 17.067 c 0,4.124 -3.343,7.467 -7.467,7.467 z"
   id="path40"
   inkscape:connector-curvature="0" />
	<path
   style="fill:#74757b"
   d="m 332.8,195.2 c -4.124,0 -7.467,-3.343 -7.467,-7.467 v -17.067 c 0,-4.124 3.343,-7.467 7.467,-7.467 4.124,0 7.467,3.343 7.467,7.467 v 17.067 c 0,4.124 -3.343,7.467 -7.467,7.467 z"
   id="path42"
   inkscape:connector-curvature="0" />
	<path
   style="fill:#74757b"
   d="m 349.867,195.2 c -4.124,0 -7.467,-3.343 -7.467,-7.467 v -17.067 c 0,-4.124 3.343,-7.467 7.467,-7.467 4.124,0 7.467,3.343 7.467,7.467 v 17.067 c -10e-4,4.124 -3.344,7.467 -7.467,7.467 z"
   id="path44"
   inkscape:connector-curvature="0" />
	<path
   style="fill:#74757b"
   d="m 375.467,195.2 c -4.124,0 -7.467,-3.343 -7.467,-7.467 v -17.067 c 0,-4.124 3.343,-7.467 7.467,-7.467 4.124,0 7.467,3.343 7.467,7.467 v 17.067 c -0.001,4.124 -3.344,7.467 -7.467,7.467 z"
   id="path46"
   inkscape:connector-curvature="0" />
</g>
<path
   style="fill:#6ac8b7;stroke-width:0.12499914"
   d="M 31.999562,0 H 21.333083 C 20.743966,0 20.266472,0.44774995 20.266472,0.99999996 V 15 c 0,0.55225 0.47762,1 1.066611,1 h 10.666479 c 0.589117,0 1.066611,-0.44775 1.066611,-1 V 0.99999996 C 33.066173,0.44774995 32.588679,0 31.999562,0 Z"
   id="path50"
   inkscape:connector-curvature="0" />
<path
   style="fill:#2db59f;stroke-width:0.12499914"
   d="M 22.399694,15 V 0.99999996 C 22.399694,0.44774995 22.877312,0 23.466304,0 h -2.133346 c -0.589116,0 -1.06661,0.44774995 -1.06661,0.99999996 V 15 c 0,0.55225 0.477618,1 1.06661,1 h 2.133346 c -0.588992,0 -1.06661,-0.44775 -1.06661,-1 z"
   id="path52"
   inkscape:connector-curvature="0" />
<path
   style="fill:#6ac8b7;stroke-width:0.12499914"
   d="m 31.999562,0 h -3.199956 c 0,0 -0.477618,1.066625 -1.066611,1.066625 H 25.59965 C 25.010533,1.066625 24.533039,0 24.533039,0 H 21.333083 C 20.743966,0 20.266472,0.44774995 20.266472,0.99999996 V 15 c 0,0.55225 0.47762,1 1.066611,1 h 10.666479 c 0.589117,0 1.066611,-0.44775 1.066611,-1 V 0.99999996 C 33.066173,0.44774995 32.588679,0 31.999562,0 Z"
   id="path54"
   inkscape:connector-curvature="0" />
<path
   style="fill:#ebebec;stroke-width:0.12499914"
   d="m 28.799606,0 h -4.266567 v 6.4 c 0,0.589125 0.477619,1.0666246 1.066611,1.0666246 h 2.133345 C 28.322112,7.4666246 28.799606,6.989 28.799606,6.4 Z"
   id="path56"
   inkscape:connector-curvature="0" />
<g
   id="g66"
   transform="scale(0.12499829,0.125)">
	<path
   style="fill:#606268"
   d="m 230.4,102.4 h -34.133 c -4.713,0 -8.533,-3.821 -8.533,-8.533 0,-4.712 3.821,-8.533 8.533,-8.533 H 230.4 c 4.713,0 8.533,3.821 8.533,8.533 0,4.712 -3.82,8.533 -8.533,8.533 z"
   id="path58"
   inkscape:connector-curvature="0" />
	<path
   style="fill:#606268"
   d="m 324.267,51.2 h -34.133 c -4.713,0 -8.533,-3.821 -8.533,-8.533 0,-4.712 3.821,-8.533 8.533,-8.533 h 34.133 c 4.713,0 8.533,3.821 8.533,8.533 0,4.712 -3.821,8.533 -8.533,8.533 z"
   id="path60"
   inkscape:connector-curvature="0" />
	<path
   style="fill:#606268"
   d="m 324.267,76.8 h -34.133 c -4.713,0 -8.533,-3.821 -8.533,-8.533 0,-4.712 3.821,-8.533 8.533,-8.533 h 34.133 c 4.713,0 8.533,3.821 8.533,8.533 0,4.712 -3.821,8.533 -8.533,8.533 z"
   id="path62"
   inkscape:connector-curvature="0" />
	<path
   style="fill:#606268"
   d="m 324.267,102.4 h -34.133 c -4.713,0 -8.533,-3.821 -8.533,-8.533 0,-4.712 3.821,-8.533 8.533,-8.533 h 34.133 c 4.713,0 8.533,3.821 8.533,8.533 0,4.712 -3.821,8.533 -8.533,8.533 z"
   id="path64"
   inkscape:connector-curvature="0" />
</g>
<g
   id="g68"
   transform="translate(0,-448)">
</g>
<g
   id="g70"
   transform="translate(0,-448)">
</g>
<g
   id="g72"
   transform="translate(0,-448)">
</g>
<g
   id="g74"
   transform="translate(0,-448)">
</g>
<g
   id="g76"
   transform="translate(0,-448)">
</g>
<g
   id="g78"
   transform="translate(0,-448)">
</g>
<g
   id="g80"
   transform="translate(0,-448)">
</g>
<g
   id="g82"
   transform="translate(0,-448)">
</g>
<g
   id="g84"
   transform="translate(0,-448)">
</g>
<g
   id="g86"
   transform="translate(0,-448)">
</g>
<g
   id="g88"
   transform="translate(0,-448)">
</g>
<g
   id="g90"
   transform="translate(0,-448)">
</g>
<g
   id="g92"
   transform="translate(0,-448)">
</g>
<g
   id="g94"
   transform="translate(0,-448)">
</g>
<g
   id="g96"
   transform="translate(0,-448)">
</g>
</svg>