<?xml version="1.0" encoding="UTF-8" standalone="no"?>
<!-- Generator: Adobe Illustrator 19.0.0, SVG Export Plug-In . SVG Version: 6.00 Build 0)  -->

<svg
   xmlns:dc="http://purl.org/dc/elements/1.1/"
   xmlns:cc="http://creativecommons.org/ns#"
   xmlns:rdf="http://www.w3.org/1999/02/22-rdf-syntax-ns#"
   xmlns:svg="http://www.w3.org/2000/svg"
   xmlns="http://www.w3.org/2000/svg"
   xmlns:sodipodi="http://sodipodi.sourceforge.net/DTD/sodipodi-0.dtd"
   xmlns:inkscape="http://www.inkscape.org/namespaces/inkscape"
   version="1.1"
   id="Layer_1"
   x="0px"
   y="0px"
   viewBox="0 0 64 64"
   xml:space="preserve"
   sodipodi:docname="special.svg"
   width="64"
   height="64"
   inkscape:version="0.92.3 (2405546, 2018-03-11)"><metadata
   id="metadata83"><rdf:RDF><cc:Work
       rdf:about=""><dc:format>image/svg+xml</dc:format><dc:type
         rdf:resource="http://purl.org/dc/dcmitype/StillImage" /><dc:title></dc:title></cc:Work></rdf:RDF></metadata><defs
   id="defs81" /><sodipodi:namedview
   pagecolor="#ffffff"
   bordercolor="#666666"
   borderopacity="1"
   objecttolerance="10"
   gridtolerance="10"
   guidetolerance="10"
   inkscape:pageopacity="0"
   inkscape:pageshadow="2"
   inkscape:window-width="640"
   inkscape:window-height="480"
   id="namedview79"
   showgrid="false"
   inkscape:zoom="1.3037281"
   inkscape:cx="30.461594"
   inkscape:cy="-3.1226356"
   inkscape:window-x="0"
   inkscape:window-y="0"
   inkscape:window-maximized="0"
   inkscape:current-layer="Layer_1" />
<path
   style="fill:#fde5a2;stroke-width:0.12117489"
   d="m 60.434084,30.020212 c -1.138439,0.05297 -2.014311,1.02124 -2.014311,2.146388 v 6.763883 c -0.836968,-0.699289 -2.09041,-0.655463 -2.8725,0.128227 l -5.594022,5.606469 0.02463,0.02432 -0.02463,0.01516 h -4.23326 c -4.67583,0 -8.466521,3.742301 -8.466521,8.358714 v 8.358714 c 0,0.576961 0.473912,1.044839 1.058315,1.044839 h 7.408206 c 0.584403,0 1.058315,-0.467878 1.058315,-1.044839 v -4.179472 l 6.349891,-4.179356 9.524836,-9.403553 V 32.107483 c -1.21e-4,-1.187514 -1.003557,-2.143619 -2.218949,-2.087271 z"
   id="path2"
   inkscape:connector-curvature="0" />
<g
   id="g8"
   transform="matrix(0.12195382,0,0,0.12040093,0.74171806,0.82154229)">
	<path
   style="fill:#fdd042"
   d="m 417.972,378.594 3.917,3.917 c 3.407,3.407 8.937,3.387 12.318,-0.047 l 39.916,-40.521 c 5.836,-5.925 6.539,-14.978 2.164,-21.666 z"
   id="path4"
   inkscape:connector-curvature="0" />
	<path
   style="fill:#fdd042"
   d="m 490.305,242.517 v 104.602 l -78.102,78.102 -56.373,32.214 c -2.704,1.545 -4.373,4.42 -4.373,7.535 V 512 h 17.356 c 4.792,0 8.678,-3.886 8.678,-8.678 V 468.61 l 52.068,-34.712 78.102,-78.102 v -95.948 c 0,-9.583 -7.773,-17.328 -17.356,-17.331 z"
   id="path6"
   inkscape:connector-curvature="0" />
</g>
<path
   style="fill:#fde5a2;stroke-width:0.12117489"
   d="m 3.4897034,30.020212 c 1.1384387,0.05297 2.014311,1.02124 2.014311,2.146388 v 6.763883 c 0.836969,-0.699289 2.0904104,-0.655463 2.8725004,0.128227 l 5.5940212,5.606469 -0.02463,0.02432 0.02463,0.01516 h 4.23326 c 4.675832,0 8.466522,3.742301 8.466522,8.358714 v 8.358714 c 0,0.576961 -0.473913,1.044839 -1.058315,1.044839 h -7.408207 c -0.584402,0 -1.058314,-0.467878 -1.058314,-1.044839 V 57.242621 L 10.79559,53.063265 1.2708757,43.659832 V 32.107604 c 0,-1.187635 1.0034359,-2.14374 2.2188277,-2.087392 z"
   id="path10"
   inkscape:connector-curvature="0" />
<g
   id="g16"
   transform="matrix(0.12195382,0,0,0.12040093,0.74171806,0.82154229)">
	<path
   style="fill:#fdd042"
   d="m 94.028,378.594 -3.917,3.917 c -3.407,3.407 -8.937,3.387 -12.318,-0.047 L 37.877,341.943 c -5.836,-5.925 -6.539,-14.978 -2.164,-21.666 z"
   id="path12"
   inkscape:connector-curvature="0" />
	<path
   style="fill:#fdd042"
   d="m 21.695,242.517 v 104.602 l 78.102,78.102 56.373,32.214 c 2.704,1.545 4.373,4.42 4.373,7.535 V 512 h -17.356 c -4.792,0 -8.678,-3.886 -8.678,-8.678 V 468.61 L 82.441,433.898 4.339,355.797 v -95.948 c 0,-9.584 7.773,-17.329 17.356,-17.332 z"
   id="path14"
   inkscape:connector-curvature="0" />
</g>
<path
   style="fill:#6ac8b7;stroke-width:0.12117489"
   d="M 51.011445,9.1802562 H 12.912342 c -0.584402,0 -1.058314,0.4678786 -1.058314,1.0448388 v 28.21054 c 0,0.576962 0.473912,1.044839 1.058314,1.044839 h 38.099225 c 0.584403,0 1.058315,-0.467877 1.058315,-1.044839 V 10.225095 C 52.069761,9.6480138 51.59597,9.1802562 51.011445,9.1802562 Z"
   id="path18"
   inkscape:connector-curvature="0" />
<path
   style="fill:#2db59f;stroke-width:0.12117489"
   d="m 52.069761,10.225095 c 0,-0.5769602 -0.473913,-1.0448388 -1.058316,-1.0448388 H 12.912342 c -0.584402,0 -1.058314,0.4678786 -1.058314,1.0448388 v 3.177983 h 40.215854 v -3.177983 z"
   id="path20"
   inkscape:connector-curvature="0" />
<path
   style="fill:#74dbc9;stroke-width:0.12117489"
   d="M 53.128075,0.82154229 H 10.795712 c -0.584403,0 -1.0583149,0.46787801 -1.0583149,1.04483931 v 8.3587134 c 0,0.576962 0.4739119,1.04484 1.0583149,1.04484 h 42.332485 c 0.584403,0 1.058316,-0.467878 1.058316,-1.04484 V 1.8663816 C 54.186391,1.2894203 53.7126,0.82154229 53.128075,0.82154229 Z"
   id="path22"
   inkscape:connector-curvature="0" />
<g
   id="g46"
   transform="matrix(0.12195382,0,0,0.12040093,0.74171806,0.82154229)">
	<path
   style="fill:#2db59f"
   d="m 257.643,162.712 h -18.999 c -2.633,0 -5.006,-1.586 -6.013,-4.018 -1.008,-2.432 -0.45,-5.232 1.411,-7.093 l 38.787,-38.787 h -51.542 c -4.792,0 -8.678,3.886 -8.678,8.678 v 52.068 c 0,9.62 3.151,18.514 8.469,25.716 z"
   id="path24"
   inkscape:connector-curvature="0" />
	<path
   style="fill:#2db59f"
   d="m 291.213,112.839 -36.856,36.856 h 18.999 c 2.633,0 5.005,1.586 6.013,4.018 1.008,2.432 0.451,5.232 -1.411,7.093 l -47.673,47.675 c 4.977,3.675 10.764,6.313 17.038,7.594 v 18.23 h -8.678 c -4.792,0 -8.678,3.886 -8.678,8.678 0,4.792 3.886,8.678 8.678,8.678 h 34.712 c 4.792,0 8.678,-3.886 8.678,-8.678 0,-4.792 -3.886,-8.678 -8.678,-8.678 h -8.678 v -18.229 c 19.78,-4.032 34.712,-21.563 34.712,-42.517 v -52.068 c -0.001,-4.624 -3.62,-8.391 -8.178,-8.652 z"
   id="path26"
   inkscape:connector-curvature="0" />
	<path
   style="fill:#2db59f"
   d="m 256,294.508 c -4.493,0 -8.136,-3.643 -8.136,-8.136 v -8.678 c 0,-4.493 3.643,-8.136 8.136,-8.136 4.494,0 8.136,3.643 8.136,8.136 v 8.678 c 0,4.494 -3.642,8.136 -8.136,8.136 z"
   id="path28"
   inkscape:connector-curvature="0" />
	<path
   style="fill:#2db59f"
   d="m 221.288,294.508 c -4.493,0 -8.136,-3.643 -8.136,-8.136 v -8.678 c 0,-4.493 3.643,-8.136 8.136,-8.136 4.493,0 8.136,3.643 8.136,8.136 v 8.678 c 0,4.494 -3.643,8.136 -8.136,8.136 z"
   id="path30"
   inkscape:connector-curvature="0" />
	<path
   style="fill:#2db59f"
   d="m 160.542,294.508 c -4.493,0 -8.136,-3.643 -8.136,-8.136 v -8.678 c 0,-4.493 3.643,-8.136 8.136,-8.136 4.493,0 8.136,3.643 8.136,8.136 v 8.678 c 0,4.494 -3.643,8.136 -8.136,8.136 z"
   id="path32"
   inkscape:connector-curvature="0" />
	<path
   style="fill:#2db59f"
   d="m 177.898,294.508 c -4.493,0 -8.136,-3.643 -8.136,-8.136 v -8.678 c 0,-4.493 3.643,-8.136 8.136,-8.136 4.493,0 8.136,3.643 8.136,8.136 v 8.678 c 0,4.494 -3.643,8.136 -8.136,8.136 z"
   id="path34"
   inkscape:connector-curvature="0" />
	<path
   style="fill:#2db59f"
   d="m 238.644,294.508 c -4.493,0 -8.136,-3.643 -8.136,-8.136 v -8.678 c 0,-4.493 3.643,-8.136 8.136,-8.136 4.493,0 8.136,3.643 8.136,8.136 v 8.678 c 0,4.494 -3.643,8.136 -8.136,8.136 z"
   id="path36"
   inkscape:connector-curvature="0" />
	<path
   style="fill:#2db59f"
   d="m 290.712,294.508 c -4.494,0 -8.136,-3.643 -8.136,-8.136 v -8.678 c 0,-4.493 3.641,-8.136 8.136,-8.136 4.495,0 8.136,3.643 8.136,8.136 v 8.678 c -0.001,4.494 -3.642,8.136 -8.136,8.136 z"
   id="path38"
   inkscape:connector-curvature="0" />
	<path
   style="fill:#2db59f"
   d="m 308.068,294.508 c -4.494,0 -8.136,-3.643 -8.136,-8.136 v -8.678 c 0,-4.493 3.642,-8.136 8.136,-8.136 4.494,0 8.136,3.643 8.136,8.136 v 8.678 c -0.001,4.494 -3.642,8.136 -8.136,8.136 z"
   id="path40"
   inkscape:connector-curvature="0" />
	<path
   style="fill:#2db59f"
   d="m 334.102,294.508 c -4.494,0 -8.136,-3.643 -8.136,-8.136 v -8.678 c 0,-4.493 3.641,-8.136 8.136,-8.136 4.495,0 8.136,3.643 8.136,8.136 v 8.678 c -10e-4,4.494 -3.642,8.136 -8.136,8.136 z"
   id="path42"
   inkscape:connector-curvature="0" />
	<path
   style="fill:#2db59f"
   d="m 351.458,294.508 c -4.494,0 -8.136,-3.643 -8.136,-8.136 v -8.678 c 0,-4.493 3.642,-8.136 8.136,-8.136 4.494,0 8.136,3.643 8.136,8.136 v 8.678 c -10e-4,4.494 -3.642,8.136 -8.136,8.136 z"
   id="path44"
   inkscape:connector-curvature="0" />
</g>
<g
   id="g48"
   transform="translate(0,-448)">
</g>
<g
   id="g50"
   transform="translate(0,-448)">
</g>
<g
   id="g52"
   transform="translate(0,-448)">
</g>
<g
   id="g54"
   transform="translate(0,-448)">
</g>
<g
   id="g56"
   transform="translate(0,-448)">
</g>
<g
   id="g58"
   transform="translate(0,-448)">
</g>
<g
   id="g60"
   transform="translate(0,-448)">
</g>
<g
   id="g62"
   transform="translate(0,-448)">
</g>
<g
   id="g64"
   transform="translate(0,-448)">
</g>
<g
   id="g66"
   transform="translate(0,-448)">
</g>
<g
   id="g68"
   transform="translate(0,-448)">
</g>
<g
   id="g70"
   transform="translate(0,-448)">
</g>
<g
   id="g72"
   transform="translate(0,-448)">
</g>
<g
   id="g74"
   transform="translate(0,-448)">
</g>
<g
   id="g76"
   transform="translate(0,-448)">
</g>
</svg>