<?xml version="1.0" encoding="UTF-8" standalone="no"?>
<!-- Generator: Adobe Illustrator 19.0.0, SVG Export Plug-In . SVG Version: 6.00 Build 0)  -->

<svg
   xmlns:dc="http://purl.org/dc/elements/1.1/"
   xmlns:cc="http://creativecommons.org/ns#"
   xmlns:rdf="http://www.w3.org/1999/02/22-rdf-syntax-ns#"
   xmlns:svg="http://www.w3.org/2000/svg"
   xmlns="http://www.w3.org/2000/svg"
   xmlns:sodipodi="http://sodipodi.sourceforge.net/DTD/sodipodi-0.dtd"
   xmlns:inkscape="http://www.inkscape.org/namespaces/inkscape"
   version="1.1"
   id="Layer_1"
   x="0px"
   y="0px"
   viewBox="0 0 64 64"
   xml:space="preserve"
   sodipodi:docname="warehousing.svg"
   width="64"
   height="64"
   inkscape:version="0.92.3 (2405546, 2018-03-11)"><metadata
   id="metadata83"><rdf:RDF><cc:Work
       rdf:about=""><dc:format>image/svg+xml</dc:format><dc:type
         rdf:resource="http://purl.org/dc/dcmitype/StillImage" /><dc:title></dc:title></cc:Work></rdf:RDF></metadata><defs
   id="defs81" /><sodipodi:namedview
   pagecolor="#ffffff"
   bordercolor="#666666"
   borderopacity="1"
   objecttolerance="10"
   gridtolerance="10"
   guidetolerance="10"
   inkscape:pageopacity="0"
   inkscape:pageshadow="2"
   inkscape:window-width="640"
   inkscape:window-height="480"
   id="namedview79"
   showgrid="false"
   inkscape:zoom="1.3037281"
   inkscape:cx="135.62515"
   inkscape:cy="-3.7145109"
   inkscape:window-x="0"
   inkscape:window-y="0"
   inkscape:window-maximized="0"
   inkscape:current-layer="Layer_1" />
<path
   style="fill:#f07b52;stroke-width:0.12664852"
   d="M 63.723727,20.9959 33.401979,0.50334516 c -0.367136,-0.24810888 -0.848994,-0.24823528 -1.21613,0 L 1.8639739,20.9959 c -0.2969572,0.200585 -0.4748778,0.534768 -0.4748778,0.892333 v 42.063493 c 0,0.595688 0.4849033,1.078509 1.0828787,1.078509 H 63.115599 c 0.598102,0 1.082878,-0.482947 1.082878,-1.078509 V 21.888233 c 1.28e-4,-0.357565 -0.177666,-0.691748 -0.47475,-0.892333 z"
   id="path2"
   inkscape:connector-curvature="0" />
<path
   style="fill:#e5563c;stroke-width:0.12664852"
   d="M 4.6379859,63.951726 V 21.888233 c 0,-0.357565 0.1779211,-0.691748 0.4748787,-0.892459 L 34.418232,1.1901632 33.401851,0.50321866 c -0.367135,-0.24810878 -0.848993,-0.24823518 -1.216129,0 L 1.8639739,20.995774 c -0.2969572,0.200711 -0.4748778,0.53502 -0.4748778,0.892459 v 42.063493 c 0,0.595688 0.4849033,1.078509 1.0828787,1.078509 h 3.2487633 c -0.5979758,0 -1.0827522,-0.482694 -1.0827522,-1.078509 z"
   id="path4"
   inkscape:connector-curvature="0" />
<path
   style="fill:#74757b;stroke-width:0.12664852"
   d="M 52.28643,26.202396 H 13.301271 c -0.598103,0 -1.082879,0.482945 -1.082879,1.078507 v 36.670696 c 0,0.595689 0.484903,1.07851 1.082879,1.07851 H 52.28643 c 0.598102,0 1.08288,-0.482948 1.08288,-1.07851 V 27.281031 c 1.26e-4,-0.59569 -0.484778,-1.078635 -1.08288,-1.078635 z"
   id="path6"
   inkscape:connector-curvature="0" />
<path
   style="fill:#606268;stroke-width:0.12664852"
   d="m 13.301271,26.202396 c -0.598103,0 -1.082879,0.482945 -1.082879,1.078507 v 36.670696 c 0,0.595689 0.484903,1.07851 1.082879,1.07851 h 2.165884 V 26.202396 Z"
   id="path8"
   inkscape:connector-curvature="0" />
<path
   style="fill:#c3c4c6;stroke-width:0.12664852"
   d="M 54.452315,21.888233 H 11.135513 c -0.598102,0 -1.082879,0.482946 -1.082879,1.078508 v 4.314162 c 0,0.59569 0.484904,1.078511 1.082879,1.078511 h 43.316802 c 0.598102,0 1.082878,-0.482948 1.082878,-1.078511 v -4.314162 c 0,-0.595562 -0.484903,-1.078508 -1.082878,-1.078508 z"
   id="path10"
   inkscape:connector-curvature="0" />
<path
   style="fill:#afb0b4;stroke-width:0.12664852"
   d="M 54.452315,26.202396 H 11.135513 c -0.598102,0 -1.082879,-0.482947 -1.082879,-1.078509 v 2.157144 c 0,0.595688 0.484904,1.078508 1.082879,1.078508 h 43.316802 c 0.598102,0 1.082878,-0.482946 1.082878,-1.078508 v -2.157144 c 0,0.595815 -0.484903,1.078509 -1.082878,1.078509 z"
   id="path12"
   inkscape:connector-curvature="0" />
<g
   id="g20"
   transform="matrix(0.12690482,0,0,0.12639271,0.30621727,0.31716855)">
	<path
   style="fill:#e5563c"
   d="m 290.134,76.8 h -68.267 c -4.713,0 -8.533,-3.821 -8.533,-8.533 0,-4.713 3.821,-8.533 8.533,-8.533 h 68.267 c 4.713,0 8.533,3.821 8.533,8.533 0,4.713 -3.821,8.533 -8.533,8.533 z"
   id="path14"
   inkscape:connector-curvature="0" />
	<path
   style="fill:#e5563c"
   d="m 290.134,110.934 h -68.267 c -4.713,0 -8.533,-3.821 -8.533,-8.533 0,-4.712 3.821,-8.533 8.533,-8.533 h 68.267 c 4.713,0 8.533,3.821 8.533,8.533 0,4.712 -3.821,8.533 -8.533,8.533 z"
   id="path16"
   inkscape:connector-curvature="0" />
	<path
   style="fill:#e5563c"
   d="m 290.134,145.067 h -68.267 c -4.713,0 -8.533,-3.821 -8.533,-8.533 0,-4.713 3.821,-8.533 8.533,-8.533 h 68.267 c 4.713,0 8.533,3.821 8.533,8.533 0,4.712 -3.821,8.533 -8.533,8.533 z"
   id="path18"
   inkscape:connector-curvature="0" />
</g>
<g
   id="g26"
   transform="matrix(0.12690482,0,0,0.12639271,0.30621727,0.31716855)">
	<path
   style="fill:#fddd85"
   d="M 204.8,273.067 H 102.4 c -4.713,0 -8.533,3.821 -8.533,8.533 V 384 c 0,4.713 3.821,8.533 8.533,8.533 l 51.2,8.533 51.2,-8.533 c 4.713,0 8.533,-3.821 8.533,-8.533 V 281.6 c 0.001,-4.712 -3.819,-8.533 -8.533,-8.533 z"
   id="path22"
   inkscape:connector-curvature="0" />
	<path
   style="fill:#fddd85"
   d="M 204.8,392.534 H 102.4 c -4.713,0 -8.533,3.821 -8.533,8.533 v 102.4 c 0,4.713 3.821,8.533 8.533,8.533 h 102.4 c 4.713,0 8.533,-3.821 8.533,-8.533 v -102.4 c 0.001,-4.712 -3.819,-8.533 -8.533,-8.533 z"
   id="path24"
   inkscape:connector-curvature="0" />
</g>
<path
   style="fill:#fdd042;stroke-width:0.12664852"
   d="M 14.384277,63.951726 V 51.009113 c 0,-0.595689 0.484902,-1.078509 1.082878,-1.078509 h -2.165884 c -0.598103,0 -1.082879,0.482947 -1.082879,1.078509 v 12.942613 c 0,0.595688 0.484903,1.078509 1.082879,1.078509 h 2.165884 c -0.598103,0 -1.082878,-0.482694 -1.082878,-1.078509 z"
   id="path28"
   inkscape:connector-curvature="0" />
<path
   style="fill:#f2c127;stroke-width:0.12664852"
   d="M 21.964682,49.930604 H 17.63304 v 5.392671 c 0,0.595689 0.484902,1.078508 1.082878,1.078508 h 2.165884 c 0.598103,0 1.08288,-0.482944 1.08288,-1.078508 z"
   id="path30"
   inkscape:connector-curvature="0" />
<path
   style="fill:#74757b;stroke-width:0.12664852"
   d="M 21.964682,62.873217 H 17.63304 c -0.598102,0 -1.082879,-0.482947 -1.082879,-1.078509 0,-0.595562 0.484903,-1.078509 1.082879,-1.078509 h 4.331642 c 0.598102,0 1.082879,0.482947 1.082879,1.078509 0,0.595562 -0.484777,1.078509 -1.082879,1.078509 z"
   id="path32"
   inkscape:connector-curvature="0" />
<path
   style="fill:#fdd042;stroke-width:0.12664852"
   d="M 14.384277,48.851968 V 35.909355 c 0,-0.595688 0.484902,-1.07851 1.082878,-1.07851 h -2.165884 c -0.598103,0 -1.082879,0.482947 -1.082879,1.07851 v 12.942613 c 0,0.595689 0.484903,1.078509 1.082879,1.078509 h 2.165884 c -0.598103,1.27e-4 -1.082878,-0.482694 -1.082878,-1.078509 z"
   id="path34"
   inkscape:connector-curvature="0" />
<path
   style="fill:#f2c127;stroke-width:0.12664852"
   d="M 21.964682,34.830845 H 17.63304 v 5.392799 c 0,0.595689 0.484902,1.078508 1.082878,1.078508 h 2.165884 c 0.598103,0 1.08288,-0.482945 1.08288,-1.078508 z"
   id="path36"
   inkscape:connector-curvature="0" />
<path
   style="fill:#74757b;stroke-width:0.12664852"
   d="M 21.964682,47.77346 H 17.63304 c -0.598102,0 -1.082879,-0.482947 -1.082879,-1.07851 0,-0.595561 0.484903,-1.078509 1.082879,-1.078509 h 4.331642 c 0.598102,0 1.082879,0.482948 1.082879,1.078509 0,0.595563 -0.484777,1.07851 -1.082879,1.07851 z"
   id="path38"
   inkscape:connector-curvature="0" />
<path
   style="fill:#fddd85;stroke-width:0.12664852"
   d="M 41.457262,49.930604 H 28.462208 c -0.598102,0 -1.082879,0.482947 -1.082879,1.078509 v 12.942613 c 0,0.595688 0.484904,1.078509 1.082879,1.078509 h 12.995054 c 0.598102,0 1.082879,-0.482947 1.082879,-1.078509 V 51.009113 c 0,-0.595562 -0.484777,-1.078509 -1.082879,-1.078509 z"
   id="path40"
   inkscape:connector-curvature="0" />
<path
   style="fill:#fdd042;stroke-width:0.12664852"
   d="M 29.545087,63.951726 V 51.009113 c 0,-0.595689 0.484903,-1.078509 1.082878,-1.078509 h -2.165884 c -0.598102,0 -1.082879,0.482947 -1.082879,1.078509 v 12.942613 c 0,0.595688 0.484904,1.078509 1.082879,1.078509 h 2.165884 c -0.597975,0 -1.082878,-0.482694 -1.082878,-1.078509 z"
   id="path42"
   inkscape:connector-curvature="0" />
<path
   style="fill:#f2c127;stroke-width:0.12664852"
   d="m 37.125619,49.930604 h -4.331768 v 5.392671 c 0,0.595689 0.484903,1.078508 1.082878,1.078508 h 2.165884 c 0.598102,0 1.082879,-0.482944 1.082879,-1.078508 v -5.392671 z"
   id="path44"
   inkscape:connector-curvature="0" />
<path
   style="fill:#74757b;stroke-width:0.12664852"
   d="m 37.125619,62.873217 h -4.331768 c -0.598103,0 -1.08288,-0.482947 -1.08288,-1.078509 0,-0.595562 0.484904,-1.078509 1.08288,-1.078509 h 4.331641 c 0.598103,0 1.082879,0.482947 1.082879,1.078509 0,0.595562 -0.484776,1.078509 -1.082752,1.078509 z"
   id="path46"
   inkscape:connector-curvature="0" />
<g
   id="g48"
   transform="translate(0,-448)">
</g>
<g
   id="g50"
   transform="translate(0,-448)">
</g>
<g
   id="g52"
   transform="translate(0,-448)">
</g>
<g
   id="g54"
   transform="translate(0,-448)">
</g>
<g
   id="g56"
   transform="translate(0,-448)">
</g>
<g
   id="g58"
   transform="translate(0,-448)">
</g>
<g
   id="g60"
   transform="translate(0,-448)">
</g>
<g
   id="g62"
   transform="translate(0,-448)">
</g>
<g
   id="g64"
   transform="translate(0,-448)">
</g>
<g
   id="g66"
   transform="translate(0,-448)">
</g>
<g
   id="g68"
   transform="translate(0,-448)">
</g>
<g
   id="g70"
   transform="translate(0,-448)">
</g>
<g
   id="g72"
   transform="translate(0,-448)">
</g>
<g
   id="g74"
   transform="translate(0,-448)">
</g>
<g
   id="g76"
   transform="translate(0,-448)">
</g>
</svg>